%
M48
M72
T01C0.03150
T02C0.03200
T03C0.03543
T04C0.03937
T05C0.04000
T06C0.07480
%
T01
X153375Y177076
X153375Y177076
X153375Y169202
X153375Y169202
X153375Y161328
X153375Y161328
X172233Y169162
X176957Y172312
X172233Y175461
X176957Y178611
X172233Y181761
T02
X36446Y183099
X54280Y187824
X67036Y165698
X54280Y157824
X36446Y163099
X82272Y150068
X82272Y140068
X82272Y130068
X82272Y120068
X82272Y110068
X82272Y100068
X82272Y90068
X82272Y80068
X82272Y70068
X82272Y60068
X82272Y50068
X82272Y40068
X82272Y30068
X82272Y20068
X66957Y24674
X66957Y14674
X53414Y16761
X33414Y16761
X23572Y16957
X13572Y16957
X33257Y34359
X24831Y44989
X54831Y44989
X63257Y34359
X112272Y30068
X112272Y40068
X112272Y50068
X112272Y60068
X112272Y70068
X112272Y80068
X112272Y90068
X112272Y100068
X112272Y110068
X112272Y120068
X112272Y130068
X112272Y140068
X112272Y150068
X127981Y155619
X127981Y165619
X126406Y175894
X126406Y185894
X116524Y178965
X106524Y178965
X96524Y178965
X84398Y179123
X84398Y189123
X97036Y165698
X139910Y100422
X129910Y100422
X131643Y70383
X141643Y70383
X112272Y20068
T03
X60855Y60068
X60855Y69910
X60855Y79753
T04
X153375Y184950
X153375Y153454
T05
X7202Y193690
X7202Y183690
X7202Y173690
X7202Y163690
X7202Y153690
X6706Y136367
X6706Y126367
X6706Y116367
X6706Y106367
X6706Y96367
X6706Y86367
X6706Y76367
X6706Y66367
X193926Y136911
X193926Y126911
X193926Y116911
X193926Y106911
X193926Y96911
X193926Y86911
X193926Y76911
X193926Y66911
T06
X192312Y189831
X192312Y161091
M30
