G75*
%MOIN*%
%OFA0B0*%
%FSLAX25Y25*%
%IPPOS*%
%LPD*%
%AMOC8*
5,1,8,0,0,1.08239X$1,22.5*
%
%ADD10C,0.00000*%
%ADD11OC8,0.06300*%
%ADD12OC8,0.05200*%
%ADD13C,0.05200*%
%ADD14C,0.05200*%
%ADD15R,0.05200X0.05200*%
%ADD16C,0.07400*%
%ADD17C,0.05150*%
%ADD18C,0.11220*%
%ADD19C,0.06600*%
%ADD20C,0.01600*%
D10*
X0001800Y0001800D02*
X0001800Y0198650D01*
X0198650Y0198650D01*
X0198650Y0001800D01*
X0001800Y0001800D01*
X0151406Y0153454D02*
X0151408Y0153542D01*
X0151414Y0153630D01*
X0151424Y0153718D01*
X0151438Y0153806D01*
X0151455Y0153892D01*
X0151477Y0153978D01*
X0151502Y0154062D01*
X0151532Y0154146D01*
X0151564Y0154228D01*
X0151601Y0154308D01*
X0151641Y0154387D01*
X0151685Y0154464D01*
X0151732Y0154539D01*
X0151782Y0154611D01*
X0151836Y0154682D01*
X0151892Y0154749D01*
X0151952Y0154815D01*
X0152014Y0154877D01*
X0152080Y0154937D01*
X0152147Y0154993D01*
X0152218Y0155047D01*
X0152290Y0155097D01*
X0152365Y0155144D01*
X0152442Y0155188D01*
X0152521Y0155228D01*
X0152601Y0155265D01*
X0152683Y0155297D01*
X0152767Y0155327D01*
X0152851Y0155352D01*
X0152937Y0155374D01*
X0153023Y0155391D01*
X0153111Y0155405D01*
X0153199Y0155415D01*
X0153287Y0155421D01*
X0153375Y0155423D01*
X0153463Y0155421D01*
X0153551Y0155415D01*
X0153639Y0155405D01*
X0153727Y0155391D01*
X0153813Y0155374D01*
X0153899Y0155352D01*
X0153983Y0155327D01*
X0154067Y0155297D01*
X0154149Y0155265D01*
X0154229Y0155228D01*
X0154308Y0155188D01*
X0154385Y0155144D01*
X0154460Y0155097D01*
X0154532Y0155047D01*
X0154603Y0154993D01*
X0154670Y0154937D01*
X0154736Y0154877D01*
X0154798Y0154815D01*
X0154858Y0154749D01*
X0154914Y0154682D01*
X0154968Y0154611D01*
X0155018Y0154539D01*
X0155065Y0154464D01*
X0155109Y0154387D01*
X0155149Y0154308D01*
X0155186Y0154228D01*
X0155218Y0154146D01*
X0155248Y0154062D01*
X0155273Y0153978D01*
X0155295Y0153892D01*
X0155312Y0153806D01*
X0155326Y0153718D01*
X0155336Y0153630D01*
X0155342Y0153542D01*
X0155344Y0153454D01*
X0155342Y0153366D01*
X0155336Y0153278D01*
X0155326Y0153190D01*
X0155312Y0153102D01*
X0155295Y0153016D01*
X0155273Y0152930D01*
X0155248Y0152846D01*
X0155218Y0152762D01*
X0155186Y0152680D01*
X0155149Y0152600D01*
X0155109Y0152521D01*
X0155065Y0152444D01*
X0155018Y0152369D01*
X0154968Y0152297D01*
X0154914Y0152226D01*
X0154858Y0152159D01*
X0154798Y0152093D01*
X0154736Y0152031D01*
X0154670Y0151971D01*
X0154603Y0151915D01*
X0154532Y0151861D01*
X0154460Y0151811D01*
X0154385Y0151764D01*
X0154308Y0151720D01*
X0154229Y0151680D01*
X0154149Y0151643D01*
X0154067Y0151611D01*
X0153983Y0151581D01*
X0153899Y0151556D01*
X0153813Y0151534D01*
X0153727Y0151517D01*
X0153639Y0151503D01*
X0153551Y0151493D01*
X0153463Y0151487D01*
X0153375Y0151485D01*
X0153287Y0151487D01*
X0153199Y0151493D01*
X0153111Y0151503D01*
X0153023Y0151517D01*
X0152937Y0151534D01*
X0152851Y0151556D01*
X0152767Y0151581D01*
X0152683Y0151611D01*
X0152601Y0151643D01*
X0152521Y0151680D01*
X0152442Y0151720D01*
X0152365Y0151764D01*
X0152290Y0151811D01*
X0152218Y0151861D01*
X0152147Y0151915D01*
X0152080Y0151971D01*
X0152014Y0152031D01*
X0151952Y0152093D01*
X0151892Y0152159D01*
X0151836Y0152226D01*
X0151782Y0152297D01*
X0151732Y0152369D01*
X0151685Y0152444D01*
X0151641Y0152521D01*
X0151601Y0152600D01*
X0151564Y0152680D01*
X0151532Y0152762D01*
X0151502Y0152846D01*
X0151477Y0152930D01*
X0151455Y0153016D01*
X0151438Y0153102D01*
X0151424Y0153190D01*
X0151414Y0153278D01*
X0151408Y0153366D01*
X0151406Y0153454D01*
X0151800Y0161328D02*
X0151802Y0161407D01*
X0151808Y0161486D01*
X0151818Y0161565D01*
X0151832Y0161643D01*
X0151849Y0161720D01*
X0151871Y0161796D01*
X0151896Y0161871D01*
X0151926Y0161944D01*
X0151958Y0162016D01*
X0151995Y0162087D01*
X0152035Y0162155D01*
X0152078Y0162221D01*
X0152124Y0162285D01*
X0152174Y0162347D01*
X0152227Y0162406D01*
X0152282Y0162462D01*
X0152341Y0162516D01*
X0152402Y0162566D01*
X0152465Y0162614D01*
X0152531Y0162658D01*
X0152599Y0162699D01*
X0152669Y0162736D01*
X0152740Y0162770D01*
X0152814Y0162800D01*
X0152888Y0162826D01*
X0152964Y0162848D01*
X0153041Y0162867D01*
X0153119Y0162882D01*
X0153197Y0162893D01*
X0153276Y0162900D01*
X0153355Y0162903D01*
X0153434Y0162902D01*
X0153513Y0162897D01*
X0153592Y0162888D01*
X0153670Y0162875D01*
X0153747Y0162858D01*
X0153824Y0162838D01*
X0153899Y0162813D01*
X0153973Y0162785D01*
X0154046Y0162753D01*
X0154116Y0162718D01*
X0154185Y0162679D01*
X0154252Y0162636D01*
X0154317Y0162590D01*
X0154379Y0162542D01*
X0154439Y0162490D01*
X0154496Y0162435D01*
X0154550Y0162377D01*
X0154601Y0162317D01*
X0154649Y0162254D01*
X0154694Y0162189D01*
X0154736Y0162121D01*
X0154774Y0162052D01*
X0154808Y0161981D01*
X0154839Y0161908D01*
X0154867Y0161833D01*
X0154890Y0161758D01*
X0154910Y0161681D01*
X0154926Y0161604D01*
X0154938Y0161525D01*
X0154946Y0161447D01*
X0154950Y0161368D01*
X0154950Y0161288D01*
X0154946Y0161209D01*
X0154938Y0161131D01*
X0154926Y0161052D01*
X0154910Y0160975D01*
X0154890Y0160898D01*
X0154867Y0160823D01*
X0154839Y0160748D01*
X0154808Y0160675D01*
X0154774Y0160604D01*
X0154736Y0160535D01*
X0154694Y0160467D01*
X0154649Y0160402D01*
X0154601Y0160339D01*
X0154550Y0160279D01*
X0154496Y0160221D01*
X0154439Y0160166D01*
X0154379Y0160114D01*
X0154317Y0160066D01*
X0154252Y0160020D01*
X0154185Y0159977D01*
X0154116Y0159938D01*
X0154046Y0159903D01*
X0153973Y0159871D01*
X0153899Y0159843D01*
X0153824Y0159818D01*
X0153747Y0159798D01*
X0153670Y0159781D01*
X0153592Y0159768D01*
X0153513Y0159759D01*
X0153434Y0159754D01*
X0153355Y0159753D01*
X0153276Y0159756D01*
X0153197Y0159763D01*
X0153119Y0159774D01*
X0153041Y0159789D01*
X0152964Y0159808D01*
X0152888Y0159830D01*
X0152814Y0159856D01*
X0152740Y0159886D01*
X0152669Y0159920D01*
X0152599Y0159957D01*
X0152531Y0159998D01*
X0152465Y0160042D01*
X0152402Y0160090D01*
X0152341Y0160140D01*
X0152282Y0160194D01*
X0152227Y0160250D01*
X0152174Y0160309D01*
X0152124Y0160371D01*
X0152078Y0160435D01*
X0152035Y0160501D01*
X0151995Y0160569D01*
X0151958Y0160640D01*
X0151926Y0160712D01*
X0151896Y0160785D01*
X0151871Y0160860D01*
X0151849Y0160936D01*
X0151832Y0161013D01*
X0151818Y0161091D01*
X0151808Y0161170D01*
X0151802Y0161249D01*
X0151800Y0161328D01*
X0151800Y0169202D02*
X0151802Y0169281D01*
X0151808Y0169360D01*
X0151818Y0169439D01*
X0151832Y0169517D01*
X0151849Y0169594D01*
X0151871Y0169670D01*
X0151896Y0169745D01*
X0151926Y0169818D01*
X0151958Y0169890D01*
X0151995Y0169961D01*
X0152035Y0170029D01*
X0152078Y0170095D01*
X0152124Y0170159D01*
X0152174Y0170221D01*
X0152227Y0170280D01*
X0152282Y0170336D01*
X0152341Y0170390D01*
X0152402Y0170440D01*
X0152465Y0170488D01*
X0152531Y0170532D01*
X0152599Y0170573D01*
X0152669Y0170610D01*
X0152740Y0170644D01*
X0152814Y0170674D01*
X0152888Y0170700D01*
X0152964Y0170722D01*
X0153041Y0170741D01*
X0153119Y0170756D01*
X0153197Y0170767D01*
X0153276Y0170774D01*
X0153355Y0170777D01*
X0153434Y0170776D01*
X0153513Y0170771D01*
X0153592Y0170762D01*
X0153670Y0170749D01*
X0153747Y0170732D01*
X0153824Y0170712D01*
X0153899Y0170687D01*
X0153973Y0170659D01*
X0154046Y0170627D01*
X0154116Y0170592D01*
X0154185Y0170553D01*
X0154252Y0170510D01*
X0154317Y0170464D01*
X0154379Y0170416D01*
X0154439Y0170364D01*
X0154496Y0170309D01*
X0154550Y0170251D01*
X0154601Y0170191D01*
X0154649Y0170128D01*
X0154694Y0170063D01*
X0154736Y0169995D01*
X0154774Y0169926D01*
X0154808Y0169855D01*
X0154839Y0169782D01*
X0154867Y0169707D01*
X0154890Y0169632D01*
X0154910Y0169555D01*
X0154926Y0169478D01*
X0154938Y0169399D01*
X0154946Y0169321D01*
X0154950Y0169242D01*
X0154950Y0169162D01*
X0154946Y0169083D01*
X0154938Y0169005D01*
X0154926Y0168926D01*
X0154910Y0168849D01*
X0154890Y0168772D01*
X0154867Y0168697D01*
X0154839Y0168622D01*
X0154808Y0168549D01*
X0154774Y0168478D01*
X0154736Y0168409D01*
X0154694Y0168341D01*
X0154649Y0168276D01*
X0154601Y0168213D01*
X0154550Y0168153D01*
X0154496Y0168095D01*
X0154439Y0168040D01*
X0154379Y0167988D01*
X0154317Y0167940D01*
X0154252Y0167894D01*
X0154185Y0167851D01*
X0154116Y0167812D01*
X0154046Y0167777D01*
X0153973Y0167745D01*
X0153899Y0167717D01*
X0153824Y0167692D01*
X0153747Y0167672D01*
X0153670Y0167655D01*
X0153592Y0167642D01*
X0153513Y0167633D01*
X0153434Y0167628D01*
X0153355Y0167627D01*
X0153276Y0167630D01*
X0153197Y0167637D01*
X0153119Y0167648D01*
X0153041Y0167663D01*
X0152964Y0167682D01*
X0152888Y0167704D01*
X0152814Y0167730D01*
X0152740Y0167760D01*
X0152669Y0167794D01*
X0152599Y0167831D01*
X0152531Y0167872D01*
X0152465Y0167916D01*
X0152402Y0167964D01*
X0152341Y0168014D01*
X0152282Y0168068D01*
X0152227Y0168124D01*
X0152174Y0168183D01*
X0152124Y0168245D01*
X0152078Y0168309D01*
X0152035Y0168375D01*
X0151995Y0168443D01*
X0151958Y0168514D01*
X0151926Y0168586D01*
X0151896Y0168659D01*
X0151871Y0168734D01*
X0151849Y0168810D01*
X0151832Y0168887D01*
X0151818Y0168965D01*
X0151808Y0169044D01*
X0151802Y0169123D01*
X0151800Y0169202D01*
X0151800Y0177076D02*
X0151802Y0177155D01*
X0151808Y0177234D01*
X0151818Y0177313D01*
X0151832Y0177391D01*
X0151849Y0177468D01*
X0151871Y0177544D01*
X0151896Y0177619D01*
X0151926Y0177692D01*
X0151958Y0177764D01*
X0151995Y0177835D01*
X0152035Y0177903D01*
X0152078Y0177969D01*
X0152124Y0178033D01*
X0152174Y0178095D01*
X0152227Y0178154D01*
X0152282Y0178210D01*
X0152341Y0178264D01*
X0152402Y0178314D01*
X0152465Y0178362D01*
X0152531Y0178406D01*
X0152599Y0178447D01*
X0152669Y0178484D01*
X0152740Y0178518D01*
X0152814Y0178548D01*
X0152888Y0178574D01*
X0152964Y0178596D01*
X0153041Y0178615D01*
X0153119Y0178630D01*
X0153197Y0178641D01*
X0153276Y0178648D01*
X0153355Y0178651D01*
X0153434Y0178650D01*
X0153513Y0178645D01*
X0153592Y0178636D01*
X0153670Y0178623D01*
X0153747Y0178606D01*
X0153824Y0178586D01*
X0153899Y0178561D01*
X0153973Y0178533D01*
X0154046Y0178501D01*
X0154116Y0178466D01*
X0154185Y0178427D01*
X0154252Y0178384D01*
X0154317Y0178338D01*
X0154379Y0178290D01*
X0154439Y0178238D01*
X0154496Y0178183D01*
X0154550Y0178125D01*
X0154601Y0178065D01*
X0154649Y0178002D01*
X0154694Y0177937D01*
X0154736Y0177869D01*
X0154774Y0177800D01*
X0154808Y0177729D01*
X0154839Y0177656D01*
X0154867Y0177581D01*
X0154890Y0177506D01*
X0154910Y0177429D01*
X0154926Y0177352D01*
X0154938Y0177273D01*
X0154946Y0177195D01*
X0154950Y0177116D01*
X0154950Y0177036D01*
X0154946Y0176957D01*
X0154938Y0176879D01*
X0154926Y0176800D01*
X0154910Y0176723D01*
X0154890Y0176646D01*
X0154867Y0176571D01*
X0154839Y0176496D01*
X0154808Y0176423D01*
X0154774Y0176352D01*
X0154736Y0176283D01*
X0154694Y0176215D01*
X0154649Y0176150D01*
X0154601Y0176087D01*
X0154550Y0176027D01*
X0154496Y0175969D01*
X0154439Y0175914D01*
X0154379Y0175862D01*
X0154317Y0175814D01*
X0154252Y0175768D01*
X0154185Y0175725D01*
X0154116Y0175686D01*
X0154046Y0175651D01*
X0153973Y0175619D01*
X0153899Y0175591D01*
X0153824Y0175566D01*
X0153747Y0175546D01*
X0153670Y0175529D01*
X0153592Y0175516D01*
X0153513Y0175507D01*
X0153434Y0175502D01*
X0153355Y0175501D01*
X0153276Y0175504D01*
X0153197Y0175511D01*
X0153119Y0175522D01*
X0153041Y0175537D01*
X0152964Y0175556D01*
X0152888Y0175578D01*
X0152814Y0175604D01*
X0152740Y0175634D01*
X0152669Y0175668D01*
X0152599Y0175705D01*
X0152531Y0175746D01*
X0152465Y0175790D01*
X0152402Y0175838D01*
X0152341Y0175888D01*
X0152282Y0175942D01*
X0152227Y0175998D01*
X0152174Y0176057D01*
X0152124Y0176119D01*
X0152078Y0176183D01*
X0152035Y0176249D01*
X0151995Y0176317D01*
X0151958Y0176388D01*
X0151926Y0176460D01*
X0151896Y0176533D01*
X0151871Y0176608D01*
X0151849Y0176684D01*
X0151832Y0176761D01*
X0151818Y0176839D01*
X0151808Y0176918D01*
X0151802Y0176997D01*
X0151800Y0177076D01*
X0151406Y0184950D02*
X0151408Y0185038D01*
X0151414Y0185126D01*
X0151424Y0185214D01*
X0151438Y0185302D01*
X0151455Y0185388D01*
X0151477Y0185474D01*
X0151502Y0185558D01*
X0151532Y0185642D01*
X0151564Y0185724D01*
X0151601Y0185804D01*
X0151641Y0185883D01*
X0151685Y0185960D01*
X0151732Y0186035D01*
X0151782Y0186107D01*
X0151836Y0186178D01*
X0151892Y0186245D01*
X0151952Y0186311D01*
X0152014Y0186373D01*
X0152080Y0186433D01*
X0152147Y0186489D01*
X0152218Y0186543D01*
X0152290Y0186593D01*
X0152365Y0186640D01*
X0152442Y0186684D01*
X0152521Y0186724D01*
X0152601Y0186761D01*
X0152683Y0186793D01*
X0152767Y0186823D01*
X0152851Y0186848D01*
X0152937Y0186870D01*
X0153023Y0186887D01*
X0153111Y0186901D01*
X0153199Y0186911D01*
X0153287Y0186917D01*
X0153375Y0186919D01*
X0153463Y0186917D01*
X0153551Y0186911D01*
X0153639Y0186901D01*
X0153727Y0186887D01*
X0153813Y0186870D01*
X0153899Y0186848D01*
X0153983Y0186823D01*
X0154067Y0186793D01*
X0154149Y0186761D01*
X0154229Y0186724D01*
X0154308Y0186684D01*
X0154385Y0186640D01*
X0154460Y0186593D01*
X0154532Y0186543D01*
X0154603Y0186489D01*
X0154670Y0186433D01*
X0154736Y0186373D01*
X0154798Y0186311D01*
X0154858Y0186245D01*
X0154914Y0186178D01*
X0154968Y0186107D01*
X0155018Y0186035D01*
X0155065Y0185960D01*
X0155109Y0185883D01*
X0155149Y0185804D01*
X0155186Y0185724D01*
X0155218Y0185642D01*
X0155248Y0185558D01*
X0155273Y0185474D01*
X0155295Y0185388D01*
X0155312Y0185302D01*
X0155326Y0185214D01*
X0155336Y0185126D01*
X0155342Y0185038D01*
X0155344Y0184950D01*
X0155342Y0184862D01*
X0155336Y0184774D01*
X0155326Y0184686D01*
X0155312Y0184598D01*
X0155295Y0184512D01*
X0155273Y0184426D01*
X0155248Y0184342D01*
X0155218Y0184258D01*
X0155186Y0184176D01*
X0155149Y0184096D01*
X0155109Y0184017D01*
X0155065Y0183940D01*
X0155018Y0183865D01*
X0154968Y0183793D01*
X0154914Y0183722D01*
X0154858Y0183655D01*
X0154798Y0183589D01*
X0154736Y0183527D01*
X0154670Y0183467D01*
X0154603Y0183411D01*
X0154532Y0183357D01*
X0154460Y0183307D01*
X0154385Y0183260D01*
X0154308Y0183216D01*
X0154229Y0183176D01*
X0154149Y0183139D01*
X0154067Y0183107D01*
X0153983Y0183077D01*
X0153899Y0183052D01*
X0153813Y0183030D01*
X0153727Y0183013D01*
X0153639Y0182999D01*
X0153551Y0182989D01*
X0153463Y0182983D01*
X0153375Y0182981D01*
X0153287Y0182983D01*
X0153199Y0182989D01*
X0153111Y0182999D01*
X0153023Y0183013D01*
X0152937Y0183030D01*
X0152851Y0183052D01*
X0152767Y0183077D01*
X0152683Y0183107D01*
X0152601Y0183139D01*
X0152521Y0183176D01*
X0152442Y0183216D01*
X0152365Y0183260D01*
X0152290Y0183307D01*
X0152218Y0183357D01*
X0152147Y0183411D01*
X0152080Y0183467D01*
X0152014Y0183527D01*
X0151952Y0183589D01*
X0151892Y0183655D01*
X0151836Y0183722D01*
X0151782Y0183793D01*
X0151732Y0183865D01*
X0151685Y0183940D01*
X0151641Y0184017D01*
X0151601Y0184096D01*
X0151564Y0184176D01*
X0151532Y0184258D01*
X0151502Y0184342D01*
X0151477Y0184426D01*
X0151455Y0184512D01*
X0151438Y0184598D01*
X0151424Y0184686D01*
X0151414Y0184774D01*
X0151408Y0184862D01*
X0151406Y0184950D01*
D11*
X0126406Y0185894D03*
X0126406Y0175894D03*
X0129910Y0100422D03*
X0139910Y0100422D03*
X0066957Y0024674D03*
X0066957Y0014674D03*
D12*
X0053414Y0016761D03*
X0033414Y0016761D03*
X0033257Y0034359D03*
X0024831Y0044989D03*
X0054831Y0044989D03*
X0063257Y0034359D03*
X0141643Y0070383D03*
X0054280Y0157824D03*
X0067036Y0165698D03*
X0054280Y0187824D03*
X0036446Y0183099D03*
X0036446Y0163099D03*
X0084398Y0189123D03*
X0096524Y0178965D03*
X0106524Y0178965D03*
X0116524Y0178965D03*
X0097036Y0165698D03*
D13*
X0084398Y0179123D03*
X0127981Y0155619D03*
X0131643Y0070383D03*
X0013572Y0016957D03*
D14*
X0079672Y0020068D02*
X0084872Y0020068D01*
X0084872Y0030068D02*
X0079672Y0030068D01*
X0079672Y0040068D02*
X0084872Y0040068D01*
X0084872Y0050068D02*
X0079672Y0050068D01*
X0079672Y0060068D02*
X0084872Y0060068D01*
X0084872Y0070068D02*
X0079672Y0070068D01*
X0079672Y0080068D02*
X0084872Y0080068D01*
X0084872Y0090068D02*
X0079672Y0090068D01*
X0079672Y0100068D02*
X0084872Y0100068D01*
X0084872Y0110068D02*
X0079672Y0110068D01*
X0079672Y0120068D02*
X0084872Y0120068D01*
X0084872Y0130068D02*
X0079672Y0130068D01*
X0079672Y0140068D02*
X0084872Y0140068D01*
X0084872Y0150068D02*
X0079672Y0150068D01*
X0109672Y0150068D02*
X0114872Y0150068D01*
X0114872Y0140068D02*
X0109672Y0140068D01*
X0109672Y0130068D02*
X0114872Y0130068D01*
X0114872Y0120068D02*
X0109672Y0120068D01*
X0109672Y0110068D02*
X0114872Y0110068D01*
X0114872Y0100068D02*
X0109672Y0100068D01*
X0109672Y0090068D02*
X0114872Y0090068D01*
X0114872Y0080068D02*
X0109672Y0080068D01*
X0109672Y0070068D02*
X0114872Y0070068D01*
X0114872Y0060068D02*
X0109672Y0060068D01*
X0109672Y0050068D02*
X0114872Y0050068D01*
X0114872Y0040068D02*
X0109672Y0040068D01*
X0109672Y0030068D02*
X0114872Y0030068D01*
X0114872Y0020068D02*
X0109672Y0020068D01*
D15*
X0023572Y0016957D03*
X0127981Y0165619D03*
D16*
X0193926Y0136911D03*
X0193926Y0126911D03*
X0193926Y0116911D03*
X0193926Y0106911D03*
X0193926Y0096911D03*
X0193926Y0086911D03*
X0193926Y0076911D03*
X0193926Y0066911D03*
X0006706Y0066367D03*
X0006706Y0076367D03*
X0006706Y0086367D03*
X0006706Y0096367D03*
X0006706Y0106367D03*
X0006706Y0116367D03*
X0006706Y0126367D03*
X0006706Y0136367D03*
X0007202Y0153690D03*
X0007202Y0163690D03*
X0007202Y0173690D03*
X0007202Y0183690D03*
X0007202Y0193690D03*
D17*
X0153375Y0177076D03*
X0153375Y0169202D03*
X0153375Y0161328D03*
X0172233Y0169162D03*
X0176957Y0172312D03*
X0172233Y0175461D03*
X0176957Y0178611D03*
X0172233Y0181761D03*
D18*
X0192312Y0189831D03*
X0192312Y0161091D03*
D19*
X0060855Y0079753D03*
X0060855Y0069910D03*
X0060855Y0060068D03*
D20*
X0063584Y0056149D02*
X0070466Y0056149D01*
X0070466Y0056007D02*
X0075672Y0050801D01*
X0075672Y0049272D01*
X0076281Y0047802D01*
X0077407Y0046677D01*
X0078877Y0046068D01*
X0085668Y0046068D01*
X0087138Y0046677D01*
X0088263Y0047802D01*
X0088872Y0049272D01*
X0088872Y0050863D01*
X0088263Y0052334D01*
X0087138Y0053459D01*
X0085668Y0054068D01*
X0078877Y0054068D01*
X0078701Y0053995D01*
X0074866Y0057829D01*
X0074866Y0083420D01*
X0073577Y0084709D01*
X0059798Y0098488D01*
X0011347Y0098488D01*
X0011029Y0099256D01*
X0009594Y0100690D01*
X0007961Y0101367D01*
X0009594Y0102043D01*
X0011029Y0103478D01*
X0011380Y0104324D01*
X0055219Y0104324D01*
X0070466Y0089078D01*
X0071755Y0087789D01*
X0074759Y0087789D01*
X0074837Y0087868D01*
X0076254Y0087868D01*
X0076281Y0087802D01*
X0077407Y0086677D01*
X0078877Y0086068D01*
X0085668Y0086068D01*
X0087138Y0086677D01*
X0088263Y0087802D01*
X0088872Y0089272D01*
X0088872Y0090863D01*
X0088263Y0092334D01*
X0087138Y0093459D01*
X0085668Y0094068D01*
X0078877Y0094068D01*
X0077407Y0093459D01*
X0076281Y0092334D01*
X0076254Y0092268D01*
X0073499Y0092268D01*
X0057042Y0108724D01*
X0011249Y0108724D01*
X0011029Y0109256D01*
X0009594Y0110690D01*
X0007961Y0111367D01*
X0009594Y0112043D01*
X0011029Y0113478D01*
X0011314Y0114167D01*
X0055219Y0114167D01*
X0070230Y0099156D01*
X0071519Y0097868D01*
X0076254Y0097868D01*
X0076281Y0097802D01*
X0077407Y0096677D01*
X0078877Y0096068D01*
X0085668Y0096068D01*
X0087138Y0096677D01*
X0088263Y0097802D01*
X0088872Y0099272D01*
X0088872Y0100863D01*
X0088263Y0102334D01*
X0087138Y0103459D01*
X0085668Y0104068D01*
X0078877Y0104068D01*
X0077407Y0103459D01*
X0076281Y0102334D01*
X0076254Y0102268D01*
X0073341Y0102268D01*
X0057042Y0118567D01*
X0011314Y0118567D01*
X0011029Y0119256D01*
X0009594Y0120690D01*
X0007961Y0121367D01*
X0009594Y0122043D01*
X0011029Y0123478D01*
X0011609Y0124877D01*
X0031570Y0127868D01*
X0076254Y0127868D01*
X0076281Y0127802D01*
X0077407Y0126677D01*
X0078877Y0126068D01*
X0085668Y0126068D01*
X0087138Y0126677D01*
X0088263Y0127802D01*
X0088872Y0129272D01*
X0088872Y0130863D01*
X0088263Y0132334D01*
X0087138Y0133459D01*
X0085668Y0134068D01*
X0078877Y0134068D01*
X0077407Y0133459D01*
X0076281Y0132334D01*
X0076254Y0132268D01*
X0032131Y0132268D01*
X0031982Y0132378D01*
X0031242Y0132268D01*
X0030495Y0132268D01*
X0030363Y0132136D01*
X0011036Y0129240D01*
X0011029Y0129256D01*
X0009594Y0130690D01*
X0007961Y0131367D01*
X0009594Y0132043D01*
X0011029Y0133478D01*
X0011609Y0134877D01*
X0031570Y0137868D01*
X0076254Y0137868D01*
X0076281Y0137802D01*
X0077407Y0136677D01*
X0078877Y0136068D01*
X0085668Y0136068D01*
X0087138Y0136677D01*
X0088263Y0137802D01*
X0088872Y0139272D01*
X0094482Y0139272D01*
X0094482Y0140870D02*
X0088869Y0140870D01*
X0088872Y0140863D02*
X0088263Y0142334D01*
X0087138Y0143459D01*
X0085668Y0144068D01*
X0078877Y0144068D01*
X0077407Y0143459D01*
X0076281Y0142334D01*
X0076254Y0142268D01*
X0032131Y0142268D01*
X0031982Y0142378D01*
X0031242Y0142268D01*
X0030495Y0142268D01*
X0030363Y0142136D01*
X0011036Y0139240D01*
X0011029Y0139256D01*
X0009594Y0140690D01*
X0007720Y0141467D01*
X0005691Y0141467D01*
X0003817Y0140690D01*
X0003600Y0140474D01*
X0003600Y0150079D01*
X0004313Y0149366D01*
X0006187Y0148590D01*
X0008216Y0148590D01*
X0010090Y0149366D01*
X0011525Y0150801D01*
X0012302Y0152675D01*
X0012302Y0154704D01*
X0011525Y0156579D01*
X0010090Y0158013D01*
X0008457Y0158690D01*
X0010090Y0159366D01*
X0011525Y0160801D01*
X0012302Y0162675D01*
X0012302Y0164704D01*
X0011525Y0166579D01*
X0010090Y0168013D01*
X0008965Y0168480D01*
X0009313Y0168593D01*
X0010084Y0168986D01*
X0010785Y0169495D01*
X0011397Y0170107D01*
X0011906Y0170807D01*
X0012299Y0171578D01*
X0012566Y0172402D01*
X0012702Y0173257D01*
X0012702Y0173490D01*
X0007402Y0173490D01*
X0007402Y0173890D01*
X0012702Y0173890D01*
X0012702Y0174123D01*
X0012566Y0174978D01*
X0012299Y0175801D01*
X0011906Y0176572D01*
X0011397Y0177273D01*
X0010785Y0177885D01*
X0010084Y0178394D01*
X0009313Y0178787D01*
X0008965Y0178900D01*
X0010090Y0179366D01*
X0011525Y0180801D01*
X0012302Y0182675D01*
X0012302Y0184704D01*
X0011525Y0186579D01*
X0010090Y0188013D01*
X0008457Y0188690D01*
X0010090Y0189366D01*
X0011525Y0190801D01*
X0012302Y0192675D01*
X0012302Y0194704D01*
X0011525Y0196579D01*
X0011253Y0196850D01*
X0196850Y0196850D01*
X0196850Y0195207D01*
X0196283Y0195774D01*
X0193706Y0196842D01*
X0190917Y0196842D01*
X0188341Y0195774D01*
X0186369Y0193802D01*
X0185302Y0191226D01*
X0185302Y0188437D01*
X0186369Y0185861D01*
X0188341Y0183889D01*
X0190917Y0182821D01*
X0193706Y0182821D01*
X0196283Y0183889D01*
X0196850Y0184456D01*
X0196850Y0166467D01*
X0196283Y0167034D01*
X0193706Y0168102D01*
X0190917Y0168102D01*
X0188341Y0167034D01*
X0186369Y0165062D01*
X0185302Y0162486D01*
X0185302Y0159697D01*
X0186369Y0157120D01*
X0188341Y0155148D01*
X0190917Y0154081D01*
X0193706Y0154081D01*
X0196283Y0155148D01*
X0196850Y0155716D01*
X0196850Y0141199D01*
X0196815Y0141235D01*
X0194940Y0142011D01*
X0192912Y0142011D01*
X0191037Y0141235D01*
X0189602Y0139800D01*
X0189271Y0139000D01*
X0156889Y0139000D01*
X0150156Y0132268D01*
X0118291Y0132268D01*
X0118263Y0132334D01*
X0117138Y0133459D01*
X0115668Y0134068D01*
X0108877Y0134068D01*
X0107407Y0133459D01*
X0106281Y0132334D01*
X0105672Y0130863D01*
X0105672Y0129272D01*
X0106281Y0127802D01*
X0107407Y0126677D01*
X0108877Y0126068D01*
X0115668Y0126068D01*
X0117138Y0126677D01*
X0118263Y0127802D01*
X0118291Y0127868D01*
X0151979Y0127868D01*
X0153268Y0129156D01*
X0158711Y0134600D01*
X0189363Y0134600D01*
X0189602Y0134022D01*
X0191037Y0132587D01*
X0192670Y0131911D01*
X0191037Y0131235D01*
X0189602Y0129800D01*
X0189271Y0129000D01*
X0161889Y0129000D01*
X0155156Y0122268D01*
X0118291Y0122268D01*
X0118263Y0122334D01*
X0117138Y0123459D01*
X0115668Y0124068D01*
X0108877Y0124068D01*
X0107407Y0123459D01*
X0106281Y0122334D01*
X0105672Y0120863D01*
X0105672Y0119272D01*
X0106281Y0117802D01*
X0107407Y0116677D01*
X0108877Y0116068D01*
X0115668Y0116068D01*
X0117138Y0116677D01*
X0118263Y0117802D01*
X0118291Y0117868D01*
X0156979Y0117868D01*
X0158268Y0119156D01*
X0163711Y0124600D01*
X0189363Y0124600D01*
X0189602Y0124022D01*
X0191037Y0122587D01*
X0192670Y0121911D01*
X0191037Y0121235D01*
X0189602Y0119800D01*
X0189271Y0119000D01*
X0165889Y0119000D01*
X0159156Y0112268D01*
X0118291Y0112268D01*
X0118263Y0112334D01*
X0117138Y0113459D01*
X0115668Y0114068D01*
X0108877Y0114068D01*
X0107407Y0113459D01*
X0106281Y0112334D01*
X0105672Y0110863D01*
X0105672Y0109272D01*
X0106281Y0107802D01*
X0107407Y0106677D01*
X0108877Y0106068D01*
X0115668Y0106068D01*
X0117138Y0106677D01*
X0118263Y0107802D01*
X0118291Y0107868D01*
X0160979Y0107868D01*
X0162268Y0109156D01*
X0162268Y0109156D01*
X0167711Y0114600D01*
X0189363Y0114600D01*
X0189602Y0114022D01*
X0191037Y0112587D01*
X0192670Y0111911D01*
X0191037Y0111235D01*
X0189602Y0109800D01*
X0188826Y0107925D01*
X0188826Y0105897D01*
X0189111Y0105208D01*
X0136171Y0052268D01*
X0118291Y0052268D01*
X0118263Y0052334D01*
X0117138Y0053459D01*
X0115668Y0054068D01*
X0108877Y0054068D01*
X0107407Y0053459D01*
X0106281Y0052334D01*
X0105672Y0050863D01*
X0105672Y0049272D01*
X0106281Y0047802D01*
X0107407Y0046677D01*
X0108877Y0046068D01*
X0115668Y0046068D01*
X0117138Y0046677D01*
X0118263Y0047802D01*
X0118291Y0047868D01*
X0137994Y0047868D01*
X0139283Y0049156D01*
X0189373Y0099247D01*
X0188826Y0097925D01*
X0188826Y0095897D01*
X0189111Y0095208D01*
X0136171Y0042268D01*
X0118291Y0042268D01*
X0118263Y0042334D01*
X0117138Y0043459D01*
X0115668Y0044068D01*
X0108877Y0044068D01*
X0107407Y0043459D01*
X0106281Y0042334D01*
X0105672Y0040863D01*
X0105672Y0039272D01*
X0106281Y0037802D01*
X0107407Y0036677D01*
X0108877Y0036068D01*
X0115668Y0036068D01*
X0117138Y0036677D01*
X0118263Y0037802D01*
X0118291Y0037868D01*
X0137994Y0037868D01*
X0139283Y0039156D01*
X0189373Y0089247D01*
X0188826Y0087925D01*
X0188826Y0085897D01*
X0189111Y0085208D01*
X0136171Y0032268D01*
X0118291Y0032268D01*
X0118263Y0032334D01*
X0117138Y0033459D01*
X0115668Y0034068D01*
X0108877Y0034068D01*
X0107407Y0033459D01*
X0106281Y0032334D01*
X0105672Y0030863D01*
X0105672Y0029272D01*
X0106281Y0027802D01*
X0107407Y0026677D01*
X0108877Y0026068D01*
X0115668Y0026068D01*
X0117138Y0026677D01*
X0118263Y0027802D01*
X0118291Y0027868D01*
X0137994Y0027868D01*
X0139283Y0029156D01*
X0189373Y0079247D01*
X0188826Y0077925D01*
X0188826Y0075897D01*
X0189111Y0075208D01*
X0136171Y0022268D01*
X0118291Y0022268D01*
X0118263Y0022334D01*
X0117138Y0023459D01*
X0115668Y0024068D01*
X0108877Y0024068D01*
X0107407Y0023459D01*
X0106452Y0022504D01*
X0098882Y0022504D01*
X0098882Y0155613D01*
X0099955Y0156687D01*
X0107436Y0156687D01*
X0108724Y0157975D01*
X0108724Y0175509D01*
X0110524Y0177309D01*
X0110524Y0180622D01*
X0108181Y0182965D01*
X0104868Y0182965D01*
X0102524Y0180622D01*
X0102524Y0177309D01*
X0104324Y0175509D01*
X0104324Y0161087D01*
X0098133Y0161087D01*
X0096844Y0159798D01*
X0094482Y0157436D01*
X0094482Y0019393D01*
X0095771Y0018104D01*
X0106156Y0018104D01*
X0106281Y0017802D01*
X0107407Y0016677D01*
X0108877Y0016068D01*
X0115668Y0016068D01*
X0117138Y0016677D01*
X0118263Y0017802D01*
X0118291Y0017868D01*
X0137994Y0017868D01*
X0139283Y0019156D01*
X0188675Y0068549D01*
X0188561Y0068199D01*
X0188426Y0067344D01*
X0188426Y0067111D01*
X0193726Y0067111D01*
X0193726Y0066711D01*
X0194126Y0066711D01*
X0194126Y0061411D01*
X0194359Y0061411D01*
X0195214Y0061546D01*
X0196037Y0061814D01*
X0196809Y0062207D01*
X0196850Y0062237D01*
X0196850Y0003600D01*
X0003600Y0003600D01*
X0003600Y0061825D01*
X0003823Y0061663D01*
X0004594Y0061270D01*
X0005418Y0061002D01*
X0006273Y0060867D01*
X0006505Y0060867D01*
X0006505Y0066167D01*
X0006906Y0066167D01*
X0006906Y0066567D01*
X0012205Y0066567D01*
X0012205Y0066800D01*
X0012070Y0067655D01*
X0011803Y0068478D01*
X0011410Y0069250D01*
X0010901Y0069950D01*
X0010289Y0070562D01*
X0009588Y0071071D01*
X0008817Y0071464D01*
X0008469Y0071577D01*
X0009594Y0072043D01*
X0009965Y0072414D01*
X0050101Y0032277D01*
X0059682Y0032277D01*
X0061600Y0030359D01*
X0064914Y0030359D01*
X0067257Y0032702D01*
X0067257Y0036016D01*
X0064914Y0038359D01*
X0061600Y0038359D01*
X0059918Y0036677D01*
X0051924Y0036677D01*
X0011805Y0076796D01*
X0011805Y0077381D01*
X0011258Y0078703D01*
X0039072Y0050889D01*
X0040361Y0049600D01*
X0063093Y0049600D01*
X0073537Y0039156D01*
X0074826Y0037868D01*
X0076254Y0037868D01*
X0076281Y0037802D01*
X0077407Y0036677D01*
X0078877Y0036068D01*
X0085668Y0036068D01*
X0087138Y0036677D01*
X0088263Y0037802D01*
X0088872Y0039272D01*
X0088872Y0040863D01*
X0088263Y0042334D01*
X0087138Y0043459D01*
X0085668Y0044068D01*
X0078877Y0044068D01*
X0077407Y0043459D01*
X0076432Y0042484D01*
X0064916Y0054000D01*
X0042184Y0054000D01*
X0011520Y0084664D01*
X0011805Y0085352D01*
X0011805Y0087381D01*
X0011029Y0089256D01*
X0009594Y0090690D01*
X0007961Y0091367D01*
X0009594Y0092043D01*
X0011029Y0093478D01*
X0011282Y0094088D01*
X0057975Y0094088D01*
X0070466Y0081597D01*
X0070466Y0056007D01*
X0070466Y0057748D02*
X0064981Y0057748D01*
X0064840Y0057405D02*
X0065555Y0059133D01*
X0065555Y0061003D01*
X0064840Y0062730D01*
X0063517Y0064052D01*
X0061790Y0064768D01*
X0059920Y0064768D01*
X0058193Y0064052D01*
X0056871Y0062730D01*
X0056155Y0061003D01*
X0056155Y0059133D01*
X0056871Y0057405D01*
X0058193Y0056083D01*
X0059920Y0055368D01*
X0061790Y0055368D01*
X0063517Y0056083D01*
X0064840Y0057405D01*
X0065555Y0059346D02*
X0070466Y0059346D01*
X0070466Y0060945D02*
X0065555Y0060945D01*
X0064917Y0062543D02*
X0070466Y0062543D01*
X0070466Y0064142D02*
X0063301Y0064142D01*
X0062813Y0065184D02*
X0062049Y0064936D01*
X0061256Y0064810D01*
X0060941Y0064810D01*
X0060941Y0069824D01*
X0060769Y0069824D01*
X0060769Y0064810D01*
X0060454Y0064810D01*
X0059661Y0064936D01*
X0058897Y0065184D01*
X0058182Y0065548D01*
X0057533Y0066020D01*
X0056965Y0066588D01*
X0056493Y0067237D01*
X0056129Y0067953D01*
X0055881Y0068716D01*
X0055755Y0069509D01*
X0055755Y0069824D01*
X0060769Y0069824D01*
X0060769Y0069996D01*
X0055755Y0069996D01*
X0055755Y0070312D01*
X0055881Y0071104D01*
X0056129Y0071868D01*
X0056493Y0072583D01*
X0056965Y0073233D01*
X0057533Y0073800D01*
X0058182Y0074272D01*
X0058897Y0074637D01*
X0059661Y0074885D01*
X0060454Y0075010D01*
X0060769Y0075010D01*
X0060769Y0069996D01*
X0060941Y0069996D01*
X0065955Y0069996D01*
X0065955Y0070312D01*
X0065830Y0071104D01*
X0065581Y0071868D01*
X0065217Y0072583D01*
X0064745Y0073233D01*
X0064178Y0073800D01*
X0063528Y0074272D01*
X0062813Y0074637D01*
X0062049Y0074885D01*
X0061256Y0075010D01*
X0060941Y0075010D01*
X0060941Y0069996D01*
X0060941Y0069824D01*
X0065955Y0069824D01*
X0065955Y0069509D01*
X0065830Y0068716D01*
X0065581Y0067953D01*
X0065217Y0067237D01*
X0064745Y0066588D01*
X0064178Y0066020D01*
X0063528Y0065548D01*
X0062813Y0065184D01*
X0063793Y0065740D02*
X0070466Y0065740D01*
X0070466Y0067339D02*
X0065269Y0067339D01*
X0065865Y0068937D02*
X0070466Y0068937D01*
X0070466Y0070536D02*
X0065920Y0070536D01*
X0065446Y0072134D02*
X0070466Y0072134D01*
X0070466Y0073733D02*
X0064245Y0073733D01*
X0063517Y0075768D02*
X0061790Y0075053D01*
X0059920Y0075053D01*
X0058193Y0075768D01*
X0056871Y0077090D01*
X0056155Y0078818D01*
X0056155Y0080688D01*
X0056871Y0082415D01*
X0058193Y0083737D01*
X0059920Y0084453D01*
X0061790Y0084453D01*
X0063517Y0083737D01*
X0064840Y0082415D01*
X0065555Y0080688D01*
X0065555Y0078818D01*
X0064840Y0077090D01*
X0063517Y0075768D01*
X0062463Y0075332D02*
X0070466Y0075332D01*
X0070466Y0076930D02*
X0064679Y0076930D01*
X0065435Y0078529D02*
X0070466Y0078529D01*
X0070466Y0080127D02*
X0065555Y0080127D01*
X0065125Y0081726D02*
X0070338Y0081726D01*
X0068739Y0083324D02*
X0063931Y0083324D01*
X0065542Y0086521D02*
X0011805Y0086521D01*
X0011627Y0084923D02*
X0067141Y0084923D01*
X0070166Y0088120D02*
X0071424Y0088120D01*
X0071765Y0086521D02*
X0077782Y0086521D01*
X0078642Y0084359D02*
X0077983Y0084145D01*
X0077366Y0083831D01*
X0076806Y0083424D01*
X0076316Y0082934D01*
X0075909Y0082374D01*
X0075595Y0081757D01*
X0075381Y0081098D01*
X0075272Y0080414D01*
X0075272Y0080068D01*
X0082272Y0080068D01*
X0082272Y0080068D01*
X0082272Y0084468D01*
X0079326Y0084468D01*
X0078642Y0084359D01*
X0076706Y0083324D02*
X0074866Y0083324D01*
X0074866Y0081726D02*
X0075585Y0081726D01*
X0075272Y0080127D02*
X0074866Y0080127D01*
X0075272Y0080068D02*
X0075272Y0079721D01*
X0075381Y0079037D01*
X0075595Y0078379D01*
X0075909Y0077762D01*
X0076316Y0077201D01*
X0076806Y0076712D01*
X0077366Y0076305D01*
X0077983Y0075990D01*
X0078642Y0075776D01*
X0079326Y0075668D01*
X0082272Y0075668D01*
X0082272Y0080068D01*
X0082272Y0080068D01*
X0075272Y0080068D01*
X0075546Y0078529D02*
X0074866Y0078529D01*
X0074866Y0076930D02*
X0076588Y0076930D01*
X0074866Y0075332D02*
X0094482Y0075332D01*
X0094482Y0076930D02*
X0087957Y0076930D01*
X0087739Y0076712D02*
X0088229Y0077201D01*
X0088636Y0077762D01*
X0088950Y0078379D01*
X0089164Y0079037D01*
X0089272Y0079721D01*
X0089272Y0080068D01*
X0089272Y0080414D01*
X0089164Y0081098D01*
X0088950Y0081757D01*
X0088636Y0082374D01*
X0088229Y0082934D01*
X0087739Y0083424D01*
X0087179Y0083831D01*
X0086561Y0084145D01*
X0085903Y0084359D01*
X0085219Y0084468D01*
X0082272Y0084468D01*
X0082272Y0080068D01*
X0082272Y0080068D01*
X0082273Y0080068D02*
X0089272Y0080068D01*
X0082273Y0080068D01*
X0082273Y0080068D01*
X0082272Y0080068D02*
X0082272Y0075668D01*
X0085219Y0075668D01*
X0085903Y0075776D01*
X0086561Y0075990D01*
X0087179Y0076305D01*
X0087739Y0076712D01*
X0088999Y0078529D02*
X0094482Y0078529D01*
X0094482Y0080127D02*
X0089272Y0080127D01*
X0088960Y0081726D02*
X0094482Y0081726D01*
X0094482Y0083324D02*
X0087839Y0083324D01*
X0086763Y0086521D02*
X0094482Y0086521D01*
X0094482Y0084923D02*
X0073363Y0084923D01*
X0072666Y0082509D02*
X0072666Y0056918D01*
X0079517Y0050068D01*
X0082272Y0050068D01*
X0077692Y0046558D02*
X0072358Y0046558D01*
X0073956Y0044960D02*
X0094482Y0044960D01*
X0094482Y0046558D02*
X0086853Y0046558D01*
X0088410Y0048157D02*
X0094482Y0048157D01*
X0094482Y0049755D02*
X0088872Y0049755D01*
X0088669Y0051354D02*
X0094482Y0051354D01*
X0094482Y0052952D02*
X0087645Y0052952D01*
X0085668Y0056068D02*
X0087138Y0056677D01*
X0088263Y0057802D01*
X0088872Y0059272D01*
X0088872Y0060863D01*
X0088263Y0062334D01*
X0087138Y0063459D01*
X0085668Y0064068D01*
X0078877Y0064068D01*
X0077407Y0063459D01*
X0076281Y0062334D01*
X0075672Y0060863D01*
X0075672Y0059272D01*
X0076281Y0057802D01*
X0077407Y0056677D01*
X0078877Y0056068D01*
X0085668Y0056068D01*
X0085865Y0056149D02*
X0094482Y0056149D01*
X0094482Y0054551D02*
X0078145Y0054551D01*
X0078680Y0056149D02*
X0076546Y0056149D01*
X0076335Y0057748D02*
X0074948Y0057748D01*
X0074866Y0059346D02*
X0075672Y0059346D01*
X0075706Y0060945D02*
X0074866Y0060945D01*
X0074866Y0062543D02*
X0076491Y0062543D01*
X0074866Y0064142D02*
X0094482Y0064142D01*
X0094482Y0065740D02*
X0074866Y0065740D01*
X0074866Y0067339D02*
X0076744Y0067339D01*
X0076281Y0067802D02*
X0077407Y0066677D01*
X0078877Y0066068D01*
X0085668Y0066068D01*
X0087138Y0066677D01*
X0088263Y0067802D01*
X0088872Y0069272D01*
X0088872Y0070863D01*
X0088263Y0072334D01*
X0087138Y0073459D01*
X0085668Y0074068D01*
X0078877Y0074068D01*
X0077407Y0073459D01*
X0076281Y0072334D01*
X0075672Y0070863D01*
X0075672Y0069272D01*
X0076281Y0067802D01*
X0075811Y0068937D02*
X0074866Y0068937D01*
X0074866Y0070536D02*
X0075672Y0070536D01*
X0076199Y0072134D02*
X0074866Y0072134D01*
X0074866Y0073733D02*
X0078069Y0073733D01*
X0082272Y0076930D02*
X0082272Y0076930D01*
X0082272Y0078529D02*
X0082272Y0078529D01*
X0082272Y0080127D02*
X0082272Y0080127D01*
X0082272Y0081726D02*
X0082272Y0081726D01*
X0082272Y0083324D02*
X0082272Y0083324D01*
X0082272Y0090068D02*
X0073926Y0090068D01*
X0073847Y0089989D01*
X0072666Y0089989D01*
X0056131Y0106524D01*
X0006863Y0106524D01*
X0006706Y0106367D01*
X0011289Y0104105D02*
X0055439Y0104105D01*
X0057038Y0102506D02*
X0010057Y0102506D01*
X0009070Y0100908D02*
X0058636Y0100908D01*
X0060235Y0099309D02*
X0010976Y0099309D01*
X0006784Y0096288D02*
X0058887Y0096288D01*
X0072666Y0082509D01*
X0069826Y0089718D02*
X0068568Y0089718D01*
X0068227Y0091317D02*
X0066969Y0091317D01*
X0066629Y0092915D02*
X0065371Y0092915D01*
X0065030Y0094514D02*
X0063772Y0094514D01*
X0063432Y0096112D02*
X0062174Y0096112D01*
X0061833Y0097711D02*
X0060575Y0097711D01*
X0059148Y0092915D02*
X0010466Y0092915D01*
X0008083Y0091317D02*
X0060747Y0091317D01*
X0062345Y0089718D02*
X0010567Y0089718D01*
X0011500Y0088120D02*
X0063944Y0088120D01*
X0057780Y0083324D02*
X0012860Y0083324D01*
X0014458Y0081726D02*
X0056585Y0081726D01*
X0056155Y0080127D02*
X0016057Y0080127D01*
X0017655Y0078529D02*
X0056275Y0078529D01*
X0057031Y0076930D02*
X0019254Y0076930D01*
X0020852Y0075332D02*
X0059247Y0075332D01*
X0060769Y0073733D02*
X0060941Y0073733D01*
X0060941Y0072134D02*
X0060769Y0072134D01*
X0060769Y0070536D02*
X0060941Y0070536D01*
X0060941Y0068937D02*
X0060769Y0068937D01*
X0060769Y0067339D02*
X0060941Y0067339D01*
X0060941Y0065740D02*
X0060769Y0065740D01*
X0058409Y0064142D02*
X0032042Y0064142D01*
X0033640Y0062543D02*
X0056793Y0062543D01*
X0056155Y0060945D02*
X0035239Y0060945D01*
X0036837Y0059346D02*
X0056155Y0059346D01*
X0056729Y0057748D02*
X0038436Y0057748D01*
X0040034Y0056149D02*
X0058127Y0056149D01*
X0064005Y0051800D02*
X0075737Y0040068D01*
X0082272Y0040068D01*
X0077309Y0043361D02*
X0075555Y0043361D01*
X0072529Y0040164D02*
X0048437Y0040164D01*
X0050035Y0038566D02*
X0074128Y0038566D01*
X0070931Y0041763D02*
X0057828Y0041763D01*
X0056654Y0040589D02*
X0059231Y0043166D01*
X0059231Y0044989D01*
X0059231Y0046812D01*
X0056654Y0049389D01*
X0054832Y0049389D01*
X0054832Y0044989D01*
X0059231Y0044989D01*
X0054832Y0044989D01*
X0054832Y0044989D01*
X0054831Y0044989D01*
X0054831Y0044989D01*
X0050431Y0044989D01*
X0050431Y0046812D01*
X0053009Y0049389D01*
X0054831Y0049389D01*
X0054831Y0044989D01*
X0050431Y0044989D01*
X0050431Y0043166D01*
X0053009Y0040589D01*
X0054831Y0040589D01*
X0054831Y0044989D01*
X0054832Y0044989D01*
X0054832Y0040589D01*
X0056654Y0040589D01*
X0054832Y0041763D02*
X0054831Y0041763D01*
X0054831Y0043361D02*
X0054832Y0043361D01*
X0054831Y0044960D02*
X0054832Y0044960D01*
X0054831Y0046558D02*
X0054832Y0046558D01*
X0054831Y0048157D02*
X0054832Y0048157D01*
X0057886Y0048157D02*
X0064537Y0048157D01*
X0066135Y0046558D02*
X0059231Y0046558D01*
X0059231Y0044960D02*
X0067734Y0044960D01*
X0069332Y0043361D02*
X0059231Y0043361D01*
X0060208Y0036967D02*
X0051634Y0036967D01*
X0051013Y0034477D02*
X0009123Y0076367D01*
X0006706Y0076367D01*
X0011330Y0078529D02*
X0011433Y0078529D01*
X0011805Y0076930D02*
X0013031Y0076930D01*
X0013270Y0075332D02*
X0014630Y0075332D01*
X0014868Y0073733D02*
X0016228Y0073733D01*
X0016467Y0072134D02*
X0017827Y0072134D01*
X0018065Y0070536D02*
X0019425Y0070536D01*
X0019664Y0068937D02*
X0021024Y0068937D01*
X0021262Y0067339D02*
X0022622Y0067339D01*
X0022861Y0065740D02*
X0024221Y0065740D01*
X0024459Y0064142D02*
X0025819Y0064142D01*
X0026058Y0062543D02*
X0027418Y0062543D01*
X0027656Y0060945D02*
X0029016Y0060945D01*
X0029255Y0059346D02*
X0030615Y0059346D01*
X0030853Y0057748D02*
X0032213Y0057748D01*
X0032452Y0056149D02*
X0033812Y0056149D01*
X0034050Y0054551D02*
X0035410Y0054551D01*
X0035649Y0052952D02*
X0037009Y0052952D01*
X0037247Y0051354D02*
X0038607Y0051354D01*
X0038846Y0049755D02*
X0040206Y0049755D01*
X0040444Y0048157D02*
X0051777Y0048157D01*
X0050431Y0046558D02*
X0042043Y0046558D01*
X0043641Y0044960D02*
X0050431Y0044960D01*
X0050431Y0043361D02*
X0045240Y0043361D01*
X0046838Y0041763D02*
X0051835Y0041763D01*
X0051013Y0034477D02*
X0063139Y0034477D01*
X0063257Y0034359D01*
X0066305Y0036967D02*
X0077116Y0036967D01*
X0078159Y0033770D02*
X0067257Y0033770D01*
X0067257Y0035369D02*
X0094482Y0035369D01*
X0094482Y0036967D02*
X0087429Y0036967D01*
X0088580Y0038566D02*
X0094482Y0038566D01*
X0094482Y0040164D02*
X0088872Y0040164D01*
X0088500Y0041763D02*
X0094482Y0041763D01*
X0094482Y0043361D02*
X0087236Y0043361D01*
X0085668Y0034068D02*
X0078877Y0034068D01*
X0077407Y0033459D01*
X0076281Y0032334D01*
X0075672Y0030863D01*
X0075672Y0029272D01*
X0076281Y0027802D01*
X0077407Y0026677D01*
X0078877Y0026068D01*
X0085668Y0026068D01*
X0087138Y0026677D01*
X0088263Y0027802D01*
X0088872Y0029272D01*
X0088872Y0030863D01*
X0088263Y0032334D01*
X0087138Y0033459D01*
X0085668Y0034068D01*
X0086386Y0033770D02*
X0094482Y0033770D01*
X0094482Y0032172D02*
X0088330Y0032172D01*
X0088872Y0030573D02*
X0094482Y0030573D01*
X0094482Y0028975D02*
X0088749Y0028975D01*
X0087838Y0027376D02*
X0094482Y0027376D01*
X0094482Y0025778D02*
X0071507Y0025778D01*
X0071507Y0026559D02*
X0071507Y0022789D01*
X0068842Y0020124D01*
X0065073Y0020124D01*
X0062407Y0022789D01*
X0062407Y0026559D01*
X0065073Y0029224D01*
X0068842Y0029224D01*
X0071507Y0026559D01*
X0070690Y0027376D02*
X0076707Y0027376D01*
X0075796Y0028975D02*
X0069091Y0028975D01*
X0066726Y0032172D02*
X0076214Y0032172D01*
X0075672Y0030573D02*
X0065128Y0030573D01*
X0064823Y0028975D02*
X0003600Y0028975D01*
X0003600Y0030573D02*
X0031386Y0030573D01*
X0031600Y0030359D02*
X0034914Y0030359D01*
X0037257Y0032702D01*
X0037257Y0036016D01*
X0034914Y0038359D01*
X0031600Y0038359D01*
X0029257Y0036016D01*
X0029257Y0032702D01*
X0031600Y0030359D01*
X0029787Y0032172D02*
X0003600Y0032172D01*
X0003600Y0033770D02*
X0029257Y0033770D01*
X0029257Y0035369D02*
X0003600Y0035369D01*
X0003600Y0036967D02*
X0030208Y0036967D01*
X0026488Y0040989D02*
X0028831Y0043332D01*
X0028831Y0046646D01*
X0026488Y0048989D01*
X0023175Y0048989D01*
X0020831Y0046646D01*
X0020831Y0043332D01*
X0023175Y0040989D01*
X0026488Y0040989D01*
X0027262Y0041763D02*
X0040616Y0041763D01*
X0042214Y0040164D02*
X0003600Y0040164D01*
X0003600Y0038566D02*
X0043813Y0038566D01*
X0045411Y0036967D02*
X0036305Y0036967D01*
X0037257Y0035369D02*
X0047010Y0035369D01*
X0048608Y0033770D02*
X0037257Y0033770D01*
X0036726Y0032172D02*
X0059787Y0032172D01*
X0061386Y0030573D02*
X0035128Y0030573D01*
X0035071Y0020761D02*
X0031757Y0020761D01*
X0029414Y0018417D01*
X0029414Y0015104D01*
X0031757Y0012761D01*
X0035071Y0012761D01*
X0037414Y0015104D01*
X0037414Y0018417D01*
X0035071Y0020761D01*
X0036448Y0019384D02*
X0049815Y0019384D01*
X0049014Y0018583D02*
X0049014Y0016761D01*
X0053414Y0016761D01*
X0053414Y0021161D01*
X0051592Y0021161D01*
X0049014Y0018583D01*
X0049014Y0017785D02*
X0037414Y0017785D01*
X0037414Y0016187D02*
X0049014Y0016187D01*
X0049014Y0016761D02*
X0049014Y0014938D01*
X0051592Y0012361D01*
X0053414Y0012361D01*
X0053414Y0016760D01*
X0053414Y0016760D01*
X0053414Y0012361D01*
X0055237Y0012361D01*
X0057814Y0014938D01*
X0057814Y0016761D01*
X0057814Y0018583D01*
X0055237Y0021161D01*
X0053414Y0021161D01*
X0053414Y0016761D01*
X0053414Y0016761D01*
X0053414Y0016761D01*
X0057814Y0016761D01*
X0053414Y0016761D01*
X0053414Y0016761D01*
X0049014Y0016761D01*
X0049364Y0014588D02*
X0036898Y0014588D01*
X0035300Y0012990D02*
X0050963Y0012990D01*
X0053414Y0012990D02*
X0053414Y0012990D01*
X0053414Y0014588D02*
X0053414Y0014588D01*
X0053414Y0016187D02*
X0053414Y0016187D01*
X0053414Y0017785D02*
X0053414Y0017785D01*
X0053414Y0019384D02*
X0053414Y0019384D01*
X0053414Y0020982D02*
X0053414Y0020982D01*
X0051413Y0020982D02*
X0003600Y0020982D01*
X0003600Y0019384D02*
X0010341Y0019384D01*
X0010181Y0019223D02*
X0009572Y0017753D01*
X0009572Y0016162D01*
X0010181Y0014692D01*
X0011306Y0013566D01*
X0012776Y0012957D01*
X0014367Y0012957D01*
X0015837Y0013566D01*
X0016963Y0014692D01*
X0017572Y0016162D01*
X0017572Y0017753D01*
X0016963Y0019223D01*
X0015837Y0020349D01*
X0014367Y0020957D01*
X0012776Y0020957D01*
X0011306Y0020349D01*
X0010181Y0019223D01*
X0009585Y0017785D02*
X0003600Y0017785D01*
X0003600Y0016187D02*
X0009572Y0016187D01*
X0010284Y0014588D02*
X0003600Y0014588D01*
X0003600Y0012990D02*
X0012698Y0012990D01*
X0014445Y0012990D02*
X0020360Y0012990D01*
X0020392Y0012957D02*
X0026752Y0012957D01*
X0027572Y0013778D01*
X0027572Y0020137D01*
X0026752Y0020957D01*
X0020392Y0020957D01*
X0019572Y0020137D01*
X0019572Y0013778D01*
X0020392Y0012957D01*
X0019572Y0014588D02*
X0016859Y0014588D01*
X0017572Y0016187D02*
X0019572Y0016187D01*
X0019572Y0017785D02*
X0017558Y0017785D01*
X0016802Y0019384D02*
X0019572Y0019384D01*
X0026784Y0012990D02*
X0031528Y0012990D01*
X0029930Y0014588D02*
X0027572Y0014588D01*
X0027572Y0016187D02*
X0029414Y0016187D01*
X0029414Y0017785D02*
X0027572Y0017785D01*
X0027572Y0019384D02*
X0030380Y0019384D01*
X0022401Y0041763D02*
X0003600Y0041763D01*
X0003600Y0043361D02*
X0020831Y0043361D01*
X0020831Y0044960D02*
X0003600Y0044960D01*
X0003600Y0046558D02*
X0020831Y0046558D01*
X0022343Y0048157D02*
X0003600Y0048157D01*
X0003600Y0049755D02*
X0032623Y0049755D01*
X0034222Y0048157D02*
X0027320Y0048157D01*
X0028831Y0046558D02*
X0035820Y0046558D01*
X0037419Y0044960D02*
X0028831Y0044960D01*
X0028831Y0043361D02*
X0039017Y0043361D01*
X0041272Y0051800D02*
X0064005Y0051800D01*
X0065964Y0052952D02*
X0073521Y0052952D01*
X0075119Y0051354D02*
X0067562Y0051354D01*
X0069161Y0049755D02*
X0075672Y0049755D01*
X0076134Y0048157D02*
X0070759Y0048157D01*
X0071922Y0054551D02*
X0041633Y0054551D01*
X0041272Y0051800D02*
X0006706Y0086367D01*
X0006784Y0096288D02*
X0006706Y0096367D01*
X0011176Y0108900D02*
X0060486Y0108900D01*
X0062085Y0107302D02*
X0058465Y0107302D01*
X0060063Y0105703D02*
X0063683Y0105703D01*
X0065282Y0104105D02*
X0061662Y0104105D01*
X0063260Y0102506D02*
X0066880Y0102506D01*
X0068479Y0100908D02*
X0064859Y0100908D01*
X0066457Y0099309D02*
X0070077Y0099309D01*
X0072430Y0100068D02*
X0082272Y0100068D01*
X0078769Y0096112D02*
X0069654Y0096112D01*
X0068056Y0097711D02*
X0076373Y0097711D01*
X0072430Y0100068D02*
X0056131Y0116367D01*
X0006706Y0116367D01*
X0010195Y0120090D02*
X0075672Y0120090D01*
X0075672Y0120863D02*
X0075672Y0119272D01*
X0076281Y0117802D01*
X0077407Y0116677D01*
X0078877Y0116068D01*
X0085668Y0116068D01*
X0087138Y0116677D01*
X0088263Y0117802D01*
X0088872Y0119272D01*
X0088872Y0120863D01*
X0088263Y0122334D01*
X0087138Y0123459D01*
X0085668Y0124068D01*
X0078877Y0124068D01*
X0077407Y0123459D01*
X0076281Y0122334D01*
X0075672Y0120863D01*
X0076014Y0121688D02*
X0008737Y0121688D01*
X0010838Y0123287D02*
X0077235Y0123287D01*
X0077872Y0126484D02*
X0022334Y0126484D01*
X0024646Y0131279D02*
X0008173Y0131279D01*
X0010429Y0132878D02*
X0076826Y0132878D01*
X0078859Y0136075D02*
X0019604Y0136075D01*
X0021917Y0140870D02*
X0009160Y0140870D01*
X0011013Y0139272D02*
X0011247Y0139272D01*
X0011443Y0134476D02*
X0094482Y0134476D01*
X0094482Y0132878D02*
X0087719Y0132878D01*
X0088700Y0131279D02*
X0094482Y0131279D01*
X0094482Y0129681D02*
X0088872Y0129681D01*
X0088380Y0128082D02*
X0094482Y0128082D01*
X0094482Y0126484D02*
X0086673Y0126484D01*
X0087310Y0123287D02*
X0094482Y0123287D01*
X0094482Y0124885D02*
X0011665Y0124885D01*
X0010604Y0129681D02*
X0013977Y0129681D01*
X0006706Y0126367D02*
X0031406Y0130068D01*
X0082272Y0130068D01*
X0085686Y0136075D02*
X0094482Y0136075D01*
X0094482Y0137673D02*
X0088135Y0137673D01*
X0088872Y0139272D02*
X0088872Y0140863D01*
X0088128Y0142469D02*
X0094482Y0142469D01*
X0094482Y0144068D02*
X0085669Y0144068D01*
X0085668Y0146068D02*
X0087138Y0146677D01*
X0088263Y0147802D01*
X0088872Y0149272D01*
X0088872Y0150863D01*
X0088263Y0152334D01*
X0087138Y0153459D01*
X0085668Y0154068D01*
X0078877Y0154068D01*
X0077407Y0153459D01*
X0076281Y0152334D01*
X0075672Y0150863D01*
X0075672Y0149272D01*
X0076281Y0147802D01*
X0077407Y0146677D01*
X0078877Y0146068D01*
X0085668Y0146068D01*
X0087726Y0147265D02*
X0094482Y0147265D01*
X0094482Y0148863D02*
X0088703Y0148863D01*
X0088872Y0150462D02*
X0094482Y0150462D01*
X0094482Y0152060D02*
X0088377Y0152060D01*
X0086656Y0153659D02*
X0094482Y0153659D01*
X0094482Y0155257D02*
X0057371Y0155257D01*
X0058280Y0156167D02*
X0058280Y0159480D01*
X0055937Y0161824D01*
X0054148Y0161824D01*
X0040354Y0181350D01*
X0040446Y0181442D01*
X0040446Y0184756D01*
X0038103Y0187099D01*
X0034789Y0187099D01*
X0032446Y0184756D01*
X0032446Y0181442D01*
X0034789Y0179099D01*
X0036557Y0179099D01*
X0050360Y0159560D01*
X0050280Y0159480D01*
X0050280Y0156167D01*
X0052623Y0153824D01*
X0055937Y0153824D01*
X0058280Y0156167D01*
X0058280Y0156856D02*
X0094482Y0156856D01*
X0095500Y0158454D02*
X0058280Y0158454D01*
X0057708Y0160053D02*
X0097099Y0160053D01*
X0099044Y0158887D02*
X0096682Y0156524D01*
X0096682Y0020304D01*
X0112036Y0020304D01*
X0112272Y0020068D01*
X0137083Y0020068D01*
X0193926Y0076911D01*
X0188826Y0076930D02*
X0187056Y0076930D01*
X0185458Y0075332D02*
X0189060Y0075332D01*
X0187637Y0073733D02*
X0183859Y0073733D01*
X0182261Y0072134D02*
X0186038Y0072134D01*
X0184440Y0070536D02*
X0180662Y0070536D01*
X0179064Y0068937D02*
X0182841Y0068937D01*
X0181243Y0067339D02*
X0177465Y0067339D01*
X0175867Y0065740D02*
X0179644Y0065740D01*
X0178046Y0064142D02*
X0174268Y0064142D01*
X0172670Y0062543D02*
X0176447Y0062543D01*
X0174849Y0060945D02*
X0171071Y0060945D01*
X0169473Y0059346D02*
X0173250Y0059346D01*
X0171652Y0057748D02*
X0167874Y0057748D01*
X0166276Y0056149D02*
X0170053Y0056149D01*
X0168455Y0054551D02*
X0164677Y0054551D01*
X0163079Y0052952D02*
X0166856Y0052952D01*
X0165258Y0051354D02*
X0161480Y0051354D01*
X0159882Y0049755D02*
X0163659Y0049755D01*
X0162061Y0048157D02*
X0158283Y0048157D01*
X0156685Y0046558D02*
X0160462Y0046558D01*
X0158864Y0044960D02*
X0155086Y0044960D01*
X0153488Y0043361D02*
X0157265Y0043361D01*
X0155666Y0041763D02*
X0151889Y0041763D01*
X0150290Y0040164D02*
X0154068Y0040164D01*
X0152469Y0038566D02*
X0148692Y0038566D01*
X0147093Y0036967D02*
X0150871Y0036967D01*
X0149272Y0035369D02*
X0145495Y0035369D01*
X0143896Y0033770D02*
X0147674Y0033770D01*
X0146075Y0032172D02*
X0142298Y0032172D01*
X0140699Y0030573D02*
X0144477Y0030573D01*
X0142878Y0028975D02*
X0139101Y0028975D01*
X0137083Y0030068D02*
X0112272Y0030068D01*
X0108159Y0033770D02*
X0098882Y0033770D01*
X0098882Y0032172D02*
X0106214Y0032172D01*
X0105672Y0030573D02*
X0098882Y0030573D01*
X0098882Y0028975D02*
X0105796Y0028975D01*
X0106707Y0027376D02*
X0098882Y0027376D01*
X0098882Y0025778D02*
X0139681Y0025778D01*
X0138083Y0024179D02*
X0098882Y0024179D01*
X0098882Y0022581D02*
X0106529Y0022581D01*
X0106298Y0017785D02*
X0088247Y0017785D01*
X0088263Y0017802D02*
X0088872Y0019272D01*
X0088872Y0020863D01*
X0088263Y0022334D01*
X0087138Y0023459D01*
X0085668Y0024068D01*
X0078877Y0024068D01*
X0077407Y0023459D01*
X0076281Y0022334D01*
X0075672Y0020863D01*
X0075672Y0019272D01*
X0076281Y0017802D01*
X0077407Y0016677D01*
X0078877Y0016068D01*
X0085668Y0016068D01*
X0087138Y0016677D01*
X0088263Y0017802D01*
X0088872Y0019384D02*
X0094491Y0019384D01*
X0094482Y0020982D02*
X0088823Y0020982D01*
X0088016Y0022581D02*
X0094482Y0022581D01*
X0094482Y0024179D02*
X0071507Y0024179D01*
X0071299Y0022581D02*
X0076529Y0022581D01*
X0075722Y0020982D02*
X0069700Y0020982D01*
X0069008Y0019624D02*
X0066958Y0019624D01*
X0066958Y0014674D01*
X0071907Y0014674D01*
X0066958Y0014674D01*
X0066958Y0014674D01*
X0066957Y0014674D01*
X0062007Y0014674D01*
X0062007Y0012624D01*
X0064907Y0009724D01*
X0066957Y0009724D01*
X0066957Y0014674D01*
X0066957Y0014674D01*
X0062007Y0014674D01*
X0062007Y0016724D01*
X0064907Y0019624D01*
X0066957Y0019624D01*
X0066957Y0014674D01*
X0066958Y0014674D01*
X0066958Y0009724D01*
X0069008Y0009724D01*
X0071907Y0012624D01*
X0071907Y0014674D01*
X0071907Y0016724D01*
X0069008Y0019624D01*
X0069248Y0019384D02*
X0075672Y0019384D01*
X0076298Y0017785D02*
X0070847Y0017785D01*
X0071907Y0016187D02*
X0078590Y0016187D01*
X0071907Y0014588D02*
X0196850Y0014588D01*
X0196850Y0012990D02*
X0071907Y0012990D01*
X0070675Y0011391D02*
X0196850Y0011391D01*
X0196850Y0009793D02*
X0069076Y0009793D01*
X0066958Y0009793D02*
X0066957Y0009793D01*
X0066957Y0011391D02*
X0066958Y0011391D01*
X0066957Y0012990D02*
X0066958Y0012990D01*
X0066957Y0014588D02*
X0066958Y0014588D01*
X0066957Y0016187D02*
X0066958Y0016187D01*
X0066957Y0017785D02*
X0066958Y0017785D01*
X0066957Y0019384D02*
X0066958Y0019384D01*
X0064667Y0019384D02*
X0057014Y0019384D01*
X0057814Y0017785D02*
X0063068Y0017785D01*
X0062007Y0016187D02*
X0057814Y0016187D01*
X0057464Y0014588D02*
X0062007Y0014588D01*
X0062007Y0012990D02*
X0055866Y0012990D01*
X0063240Y0011391D02*
X0003600Y0011391D01*
X0003600Y0009793D02*
X0064839Y0009793D01*
X0064215Y0020982D02*
X0055415Y0020982D01*
X0062407Y0024179D02*
X0003600Y0024179D01*
X0003600Y0022581D02*
X0062616Y0022581D01*
X0062407Y0025778D02*
X0003600Y0025778D01*
X0003600Y0027376D02*
X0063225Y0027376D01*
X0085955Y0016187D02*
X0108590Y0016187D01*
X0115955Y0016187D02*
X0196850Y0016187D01*
X0196850Y0017785D02*
X0118247Y0017785D01*
X0118016Y0022581D02*
X0136484Y0022581D01*
X0139510Y0019384D02*
X0196850Y0019384D01*
X0196850Y0020982D02*
X0141108Y0020982D01*
X0142707Y0022581D02*
X0196850Y0022581D01*
X0196850Y0024179D02*
X0144305Y0024179D01*
X0145904Y0025778D02*
X0196850Y0025778D01*
X0196850Y0027376D02*
X0147502Y0027376D01*
X0149101Y0028975D02*
X0196850Y0028975D01*
X0196850Y0030573D02*
X0150699Y0030573D01*
X0152298Y0032172D02*
X0196850Y0032172D01*
X0196850Y0033770D02*
X0153896Y0033770D01*
X0155495Y0035369D02*
X0196850Y0035369D01*
X0196850Y0036967D02*
X0157093Y0036967D01*
X0158692Y0038566D02*
X0196850Y0038566D01*
X0196850Y0040164D02*
X0160290Y0040164D01*
X0161889Y0041763D02*
X0196850Y0041763D01*
X0196850Y0043361D02*
X0163488Y0043361D01*
X0165086Y0044960D02*
X0196850Y0044960D01*
X0196850Y0046558D02*
X0166685Y0046558D01*
X0168283Y0048157D02*
X0196850Y0048157D01*
X0196850Y0049755D02*
X0169882Y0049755D01*
X0171480Y0051354D02*
X0196850Y0051354D01*
X0196850Y0052952D02*
X0173079Y0052952D01*
X0174677Y0054551D02*
X0196850Y0054551D01*
X0196850Y0056149D02*
X0176276Y0056149D01*
X0177874Y0057748D02*
X0196850Y0057748D01*
X0196850Y0059346D02*
X0179473Y0059346D01*
X0181071Y0060945D02*
X0196850Y0060945D01*
X0194126Y0062543D02*
X0193726Y0062543D01*
X0193726Y0061411D02*
X0193726Y0066711D01*
X0188426Y0066711D01*
X0188426Y0066478D01*
X0188561Y0065623D01*
X0188829Y0064800D01*
X0189222Y0064028D01*
X0189731Y0063328D01*
X0190343Y0062716D01*
X0191043Y0062207D01*
X0191815Y0061814D01*
X0192638Y0061546D01*
X0193493Y0061411D01*
X0193726Y0061411D01*
X0193726Y0064142D02*
X0194126Y0064142D01*
X0194126Y0065740D02*
X0193726Y0065740D01*
X0190580Y0062543D02*
X0182670Y0062543D01*
X0184268Y0064142D02*
X0189164Y0064142D01*
X0188543Y0065740D02*
X0185867Y0065740D01*
X0187465Y0067339D02*
X0188426Y0067339D01*
X0179235Y0075332D02*
X0175458Y0075332D01*
X0177056Y0076930D02*
X0180834Y0076930D01*
X0182432Y0078529D02*
X0178655Y0078529D01*
X0180253Y0080127D02*
X0184031Y0080127D01*
X0185629Y0081726D02*
X0181852Y0081726D01*
X0183450Y0083324D02*
X0187228Y0083324D01*
X0188826Y0084923D02*
X0185049Y0084923D01*
X0186647Y0086521D02*
X0188826Y0086521D01*
X0188906Y0088120D02*
X0188246Y0088120D01*
X0185220Y0091317D02*
X0181443Y0091317D01*
X0183041Y0092915D02*
X0186819Y0092915D01*
X0188417Y0094514D02*
X0184640Y0094514D01*
X0186238Y0096112D02*
X0188826Y0096112D01*
X0188826Y0097711D02*
X0187837Y0097711D01*
X0184811Y0100908D02*
X0144860Y0100908D01*
X0144860Y0100422D02*
X0144860Y0102472D01*
X0141961Y0105372D01*
X0139910Y0105372D01*
X0137860Y0105372D01*
X0134960Y0102472D01*
X0134960Y0100422D01*
X0134960Y0098372D01*
X0137860Y0095472D01*
X0139910Y0095472D01*
X0139910Y0100422D01*
X0134960Y0100422D01*
X0139910Y0100422D01*
X0139910Y0100422D01*
X0139910Y0100422D01*
X0139910Y0105372D01*
X0139910Y0100422D01*
X0139910Y0100422D01*
X0139910Y0095472D01*
X0141961Y0095472D01*
X0144860Y0098372D01*
X0144860Y0100422D01*
X0139910Y0100422D01*
X0139910Y0100422D01*
X0144860Y0100422D01*
X0144860Y0099309D02*
X0183213Y0099309D01*
X0181614Y0097711D02*
X0144199Y0097711D01*
X0142601Y0096112D02*
X0180016Y0096112D01*
X0178417Y0094514D02*
X0098882Y0094514D01*
X0098882Y0096112D02*
X0108769Y0096112D01*
X0108877Y0096068D02*
X0115668Y0096068D01*
X0117138Y0096677D01*
X0118263Y0097802D01*
X0118872Y0099272D01*
X0118872Y0100863D01*
X0118263Y0102334D01*
X0117138Y0103459D01*
X0115668Y0104068D01*
X0108877Y0104068D01*
X0107407Y0103459D01*
X0106281Y0102334D01*
X0105672Y0100863D01*
X0105672Y0099272D01*
X0106281Y0097802D01*
X0107407Y0096677D01*
X0108877Y0096068D01*
X0108877Y0094068D02*
X0107407Y0093459D01*
X0106281Y0092334D01*
X0105672Y0090863D01*
X0105672Y0089272D01*
X0106281Y0087802D01*
X0107407Y0086677D01*
X0108877Y0086068D01*
X0115668Y0086068D01*
X0117138Y0086677D01*
X0118263Y0087802D01*
X0118872Y0089272D01*
X0118872Y0090863D01*
X0118263Y0092334D01*
X0117138Y0093459D01*
X0115668Y0094068D01*
X0108877Y0094068D01*
X0106863Y0092915D02*
X0098882Y0092915D01*
X0098882Y0091317D02*
X0105860Y0091317D01*
X0105672Y0089718D02*
X0098882Y0089718D01*
X0098882Y0088120D02*
X0106150Y0088120D01*
X0107782Y0086521D02*
X0098882Y0086521D01*
X0098882Y0084923D02*
X0168826Y0084923D01*
X0170425Y0086521D02*
X0116763Y0086521D01*
X0118395Y0088120D02*
X0172023Y0088120D01*
X0173622Y0089718D02*
X0118872Y0089718D01*
X0118685Y0091317D02*
X0175220Y0091317D01*
X0176819Y0092915D02*
X0117682Y0092915D01*
X0115775Y0096112D02*
X0127785Y0096112D01*
X0128026Y0095872D02*
X0131795Y0095872D01*
X0134460Y0098537D01*
X0134460Y0102307D01*
X0131795Y0104972D01*
X0128026Y0104972D01*
X0125360Y0102307D01*
X0125360Y0098537D01*
X0128026Y0095872D01*
X0126187Y0097711D02*
X0118172Y0097711D01*
X0118872Y0099309D02*
X0125360Y0099309D01*
X0125360Y0100908D02*
X0118854Y0100908D01*
X0118091Y0102506D02*
X0125560Y0102506D01*
X0127158Y0104105D02*
X0098882Y0104105D01*
X0098882Y0105703D02*
X0188906Y0105703D01*
X0188826Y0107302D02*
X0117763Y0107302D01*
X0112272Y0110068D02*
X0160068Y0110068D01*
X0166800Y0116800D01*
X0193815Y0116800D01*
X0193926Y0116911D01*
X0192133Y0121688D02*
X0160800Y0121688D01*
X0162398Y0123287D02*
X0190338Y0123287D01*
X0189892Y0120090D02*
X0159201Y0120090D01*
X0157603Y0118491D02*
X0165380Y0118491D01*
X0163782Y0116893D02*
X0117354Y0116893D01*
X0116566Y0113696D02*
X0160585Y0113696D01*
X0162183Y0115294D02*
X0098882Y0115294D01*
X0098882Y0113696D02*
X0107979Y0113696D01*
X0106184Y0112097D02*
X0098882Y0112097D01*
X0098882Y0110499D02*
X0105672Y0110499D01*
X0105826Y0108900D02*
X0098882Y0108900D01*
X0098882Y0107302D02*
X0106782Y0107302D01*
X0106454Y0102506D02*
X0098882Y0102506D01*
X0098882Y0100908D02*
X0105691Y0100908D01*
X0105672Y0099309D02*
X0098882Y0099309D01*
X0098882Y0097711D02*
X0106373Y0097711D01*
X0094482Y0097711D02*
X0088172Y0097711D01*
X0088872Y0099309D02*
X0094482Y0099309D01*
X0094482Y0100908D02*
X0088854Y0100908D01*
X0088091Y0102506D02*
X0094482Y0102506D01*
X0094482Y0104105D02*
X0071504Y0104105D01*
X0069906Y0105703D02*
X0094482Y0105703D01*
X0094482Y0107302D02*
X0087763Y0107302D01*
X0088263Y0107802D02*
X0088872Y0109272D01*
X0088872Y0110863D01*
X0088263Y0112334D01*
X0087138Y0113459D01*
X0085668Y0114068D01*
X0078877Y0114068D01*
X0077407Y0113459D01*
X0076281Y0112334D01*
X0075672Y0110863D01*
X0075672Y0109272D01*
X0076281Y0107802D01*
X0077407Y0106677D01*
X0078877Y0106068D01*
X0085668Y0106068D01*
X0087138Y0106677D01*
X0088263Y0107802D01*
X0088718Y0108900D02*
X0094482Y0108900D01*
X0094482Y0110499D02*
X0088872Y0110499D01*
X0088361Y0112097D02*
X0094482Y0112097D01*
X0094482Y0113696D02*
X0086566Y0113696D01*
X0087354Y0116893D02*
X0094482Y0116893D01*
X0094482Y0118491D02*
X0088549Y0118491D01*
X0088872Y0120090D02*
X0094482Y0120090D01*
X0094482Y0121688D02*
X0088531Y0121688D01*
X0094482Y0115294D02*
X0060315Y0115294D01*
X0061913Y0113696D02*
X0077979Y0113696D01*
X0076184Y0112097D02*
X0063512Y0112097D01*
X0065110Y0110499D02*
X0075672Y0110499D01*
X0075826Y0108900D02*
X0066709Y0108900D01*
X0068307Y0107302D02*
X0076782Y0107302D01*
X0076454Y0102506D02*
X0073103Y0102506D01*
X0071253Y0094514D02*
X0094482Y0094514D01*
X0094482Y0096112D02*
X0085775Y0096112D01*
X0087682Y0092915D02*
X0094482Y0092915D01*
X0094482Y0091317D02*
X0088685Y0091317D01*
X0088872Y0089718D02*
X0094482Y0089718D01*
X0094482Y0088120D02*
X0088395Y0088120D01*
X0098882Y0083324D02*
X0107272Y0083324D01*
X0107407Y0083459D02*
X0106281Y0082334D01*
X0105672Y0080863D01*
X0105672Y0079272D01*
X0106281Y0077802D01*
X0107407Y0076677D01*
X0108877Y0076068D01*
X0115668Y0076068D01*
X0117138Y0076677D01*
X0118263Y0077802D01*
X0118872Y0079272D01*
X0118872Y0080863D01*
X0118263Y0082334D01*
X0117138Y0083459D01*
X0115668Y0084068D01*
X0108877Y0084068D01*
X0107407Y0083459D01*
X0106030Y0081726D02*
X0098882Y0081726D01*
X0098882Y0080127D02*
X0105672Y0080127D01*
X0105980Y0078529D02*
X0098882Y0078529D01*
X0098882Y0076930D02*
X0107153Y0076930D01*
X0108069Y0073733D02*
X0098882Y0073733D01*
X0098882Y0072134D02*
X0106199Y0072134D01*
X0106281Y0072334D02*
X0105672Y0070863D01*
X0105672Y0069272D01*
X0106281Y0067802D01*
X0107407Y0066677D01*
X0108877Y0066068D01*
X0115668Y0066068D01*
X0117138Y0066677D01*
X0118263Y0067802D01*
X0118872Y0069272D01*
X0118872Y0070863D01*
X0118263Y0072334D01*
X0117138Y0073459D01*
X0115668Y0074068D01*
X0108877Y0074068D01*
X0107407Y0073459D01*
X0106281Y0072334D01*
X0105672Y0070536D02*
X0098882Y0070536D01*
X0098882Y0068937D02*
X0105811Y0068937D01*
X0106744Y0067339D02*
X0098882Y0067339D01*
X0098882Y0065740D02*
X0149644Y0065740D01*
X0148046Y0064142D02*
X0116568Y0064142D01*
X0116561Y0064145D02*
X0115903Y0064359D01*
X0115219Y0064468D01*
X0112272Y0064468D01*
X0109326Y0064468D01*
X0108642Y0064359D01*
X0107983Y0064145D01*
X0107366Y0063831D01*
X0106806Y0063424D01*
X0106316Y0062934D01*
X0105909Y0062374D01*
X0105595Y0061757D01*
X0105381Y0061098D01*
X0105272Y0060414D01*
X0105272Y0060068D01*
X0112272Y0060068D01*
X0112272Y0060068D01*
X0112272Y0064468D01*
X0112272Y0060068D01*
X0112272Y0060068D01*
X0105272Y0060068D01*
X0105272Y0059721D01*
X0105381Y0059037D01*
X0105595Y0058379D01*
X0105909Y0057762D01*
X0106316Y0057201D01*
X0106806Y0056712D01*
X0107366Y0056305D01*
X0107983Y0055990D01*
X0108642Y0055776D01*
X0109326Y0055668D01*
X0112272Y0055668D01*
X0112272Y0060068D01*
X0112272Y0060068D01*
X0112273Y0060068D02*
X0119272Y0060068D01*
X0119272Y0060414D01*
X0119164Y0061098D01*
X0118950Y0061757D01*
X0118636Y0062374D01*
X0118229Y0062934D01*
X0117739Y0063424D01*
X0117179Y0063831D01*
X0116561Y0064145D01*
X0118512Y0062543D02*
X0146447Y0062543D01*
X0144849Y0060945D02*
X0119188Y0060945D01*
X0119272Y0060068D02*
X0112273Y0060068D01*
X0112273Y0060068D01*
X0112272Y0060068D02*
X0112272Y0055668D01*
X0115219Y0055668D01*
X0115903Y0055776D01*
X0116561Y0055990D01*
X0117179Y0056305D01*
X0117739Y0056712D01*
X0118229Y0057201D01*
X0118636Y0057762D01*
X0118950Y0058379D01*
X0119164Y0059037D01*
X0119272Y0059721D01*
X0119272Y0060068D01*
X0119213Y0059346D02*
X0143250Y0059346D01*
X0141652Y0057748D02*
X0118626Y0057748D01*
X0116874Y0056149D02*
X0140053Y0056149D01*
X0138455Y0054551D02*
X0098882Y0054551D01*
X0098882Y0056149D02*
X0107671Y0056149D01*
X0105919Y0057748D02*
X0098882Y0057748D01*
X0098882Y0059346D02*
X0105332Y0059346D01*
X0105357Y0060945D02*
X0098882Y0060945D01*
X0098882Y0062543D02*
X0106032Y0062543D01*
X0107977Y0064142D02*
X0098882Y0064142D01*
X0094482Y0062543D02*
X0088054Y0062543D01*
X0088839Y0060945D02*
X0094482Y0060945D01*
X0094482Y0059346D02*
X0088872Y0059346D01*
X0088209Y0057748D02*
X0094482Y0057748D01*
X0098882Y0052952D02*
X0106900Y0052952D01*
X0105876Y0051354D02*
X0098882Y0051354D01*
X0098882Y0049755D02*
X0105672Y0049755D01*
X0106134Y0048157D02*
X0098882Y0048157D01*
X0098882Y0046558D02*
X0107692Y0046558D01*
X0107309Y0043361D02*
X0098882Y0043361D01*
X0098882Y0041763D02*
X0106045Y0041763D01*
X0105672Y0040164D02*
X0098882Y0040164D01*
X0098882Y0038566D02*
X0105965Y0038566D01*
X0107116Y0036967D02*
X0098882Y0036967D01*
X0098882Y0035369D02*
X0139272Y0035369D01*
X0137674Y0033770D02*
X0116386Y0033770D01*
X0117429Y0036967D02*
X0140871Y0036967D01*
X0142469Y0038566D02*
X0138692Y0038566D01*
X0137083Y0040068D02*
X0112272Y0040068D01*
X0117236Y0043361D02*
X0137265Y0043361D01*
X0138864Y0044960D02*
X0098882Y0044960D01*
X0112272Y0050068D02*
X0137083Y0050068D01*
X0193926Y0106911D01*
X0190301Y0110499D02*
X0163610Y0110499D01*
X0165209Y0112097D02*
X0192220Y0112097D01*
X0189929Y0113696D02*
X0166807Y0113696D01*
X0162012Y0108900D02*
X0189230Y0108900D01*
X0188008Y0104105D02*
X0143228Y0104105D01*
X0144826Y0102506D02*
X0186410Y0102506D01*
X0193926Y0096911D02*
X0137083Y0040068D01*
X0140290Y0040164D02*
X0144068Y0040164D01*
X0145666Y0041763D02*
X0141889Y0041763D01*
X0143488Y0043361D02*
X0147265Y0043361D01*
X0148864Y0044960D02*
X0145086Y0044960D01*
X0146685Y0046558D02*
X0150462Y0046558D01*
X0152061Y0048157D02*
X0148283Y0048157D01*
X0149882Y0049755D02*
X0153659Y0049755D01*
X0155258Y0051354D02*
X0151480Y0051354D01*
X0153079Y0052952D02*
X0156856Y0052952D01*
X0158455Y0054551D02*
X0154677Y0054551D01*
X0156276Y0056149D02*
X0160053Y0056149D01*
X0161652Y0057748D02*
X0157874Y0057748D01*
X0159473Y0059346D02*
X0163250Y0059346D01*
X0164849Y0060945D02*
X0161071Y0060945D01*
X0162670Y0062543D02*
X0166447Y0062543D01*
X0168046Y0064142D02*
X0164268Y0064142D01*
X0165867Y0065740D02*
X0169644Y0065740D01*
X0171243Y0067339D02*
X0167465Y0067339D01*
X0169064Y0068937D02*
X0172841Y0068937D01*
X0174440Y0070536D02*
X0170662Y0070536D01*
X0172261Y0072134D02*
X0176038Y0072134D01*
X0177637Y0073733D02*
X0173859Y0073733D01*
X0170834Y0076930D02*
X0167056Y0076930D01*
X0165458Y0075332D02*
X0169235Y0075332D01*
X0167637Y0073733D02*
X0163859Y0073733D01*
X0162261Y0072134D02*
X0166038Y0072134D01*
X0164440Y0070536D02*
X0160662Y0070536D01*
X0159064Y0068937D02*
X0162841Y0068937D01*
X0161243Y0067339D02*
X0157465Y0067339D01*
X0155867Y0065740D02*
X0159644Y0065740D01*
X0158046Y0064142D02*
X0154268Y0064142D01*
X0152670Y0062543D02*
X0156447Y0062543D01*
X0154849Y0060945D02*
X0151071Y0060945D01*
X0149473Y0059346D02*
X0153250Y0059346D01*
X0151652Y0057748D02*
X0147874Y0057748D01*
X0146276Y0056149D02*
X0150053Y0056149D01*
X0148455Y0054551D02*
X0144677Y0054551D01*
X0143079Y0052952D02*
X0146856Y0052952D01*
X0145258Y0051354D02*
X0141480Y0051354D01*
X0139882Y0049755D02*
X0143659Y0049755D01*
X0142061Y0048157D02*
X0138283Y0048157D01*
X0140462Y0046558D02*
X0116853Y0046558D01*
X0117645Y0052952D02*
X0136856Y0052952D01*
X0139820Y0065983D02*
X0141642Y0065983D01*
X0141642Y0070383D01*
X0141642Y0070383D01*
X0137243Y0070383D01*
X0137243Y0072205D01*
X0139820Y0074783D01*
X0141642Y0074783D01*
X0141642Y0070383D01*
X0141643Y0070383D01*
X0146043Y0070383D01*
X0146043Y0072205D01*
X0143465Y0074783D01*
X0141643Y0074783D01*
X0141643Y0070383D01*
X0141643Y0070383D01*
X0146043Y0070383D01*
X0146043Y0068560D01*
X0143465Y0065983D01*
X0141643Y0065983D01*
X0141643Y0070383D01*
X0141642Y0070383D01*
X0137243Y0070383D01*
X0137243Y0068560D01*
X0139820Y0065983D01*
X0138464Y0067339D02*
X0134256Y0067339D01*
X0133908Y0066992D02*
X0135034Y0068117D01*
X0135643Y0069587D01*
X0135643Y0071178D01*
X0135034Y0072648D01*
X0133908Y0073774D01*
X0132438Y0074383D01*
X0130847Y0074383D01*
X0129377Y0073774D01*
X0128251Y0072648D01*
X0127643Y0071178D01*
X0127643Y0069587D01*
X0128251Y0068117D01*
X0129377Y0066992D01*
X0130847Y0066383D01*
X0132438Y0066383D01*
X0133908Y0066992D01*
X0135373Y0068937D02*
X0137243Y0068937D01*
X0137243Y0070536D02*
X0135643Y0070536D01*
X0135246Y0072134D02*
X0137243Y0072134D01*
X0138770Y0073733D02*
X0133949Y0073733D01*
X0129336Y0073733D02*
X0116476Y0073733D01*
X0118346Y0072134D02*
X0128039Y0072134D01*
X0127643Y0070536D02*
X0118872Y0070536D01*
X0118734Y0068937D02*
X0127912Y0068937D01*
X0129029Y0067339D02*
X0117801Y0067339D01*
X0112272Y0064142D02*
X0112272Y0064142D01*
X0112272Y0062543D02*
X0112272Y0062543D01*
X0112272Y0060945D02*
X0112272Y0060945D01*
X0112272Y0059346D02*
X0112272Y0059346D01*
X0112272Y0057748D02*
X0112272Y0057748D01*
X0112272Y0056149D02*
X0112272Y0056149D01*
X0094482Y0067339D02*
X0087801Y0067339D01*
X0088734Y0068937D02*
X0094482Y0068937D01*
X0094482Y0070536D02*
X0088872Y0070536D01*
X0088346Y0072134D02*
X0094482Y0072134D01*
X0094482Y0073733D02*
X0086476Y0073733D01*
X0098882Y0075332D02*
X0159235Y0075332D01*
X0160834Y0076930D02*
X0117392Y0076930D01*
X0118564Y0078529D02*
X0162432Y0078529D01*
X0164031Y0080127D02*
X0118872Y0080127D01*
X0118515Y0081726D02*
X0165629Y0081726D01*
X0167228Y0083324D02*
X0117273Y0083324D01*
X0132035Y0096112D02*
X0137220Y0096112D01*
X0135621Y0097711D02*
X0133634Y0097711D01*
X0134460Y0099309D02*
X0134960Y0099309D01*
X0134960Y0100908D02*
X0134460Y0100908D01*
X0134261Y0102506D02*
X0134994Y0102506D01*
X0136593Y0104105D02*
X0132662Y0104105D01*
X0139910Y0104105D02*
X0139910Y0104105D01*
X0139910Y0102506D02*
X0139910Y0102506D01*
X0139910Y0100908D02*
X0139910Y0100908D01*
X0139910Y0099309D02*
X0139910Y0099309D01*
X0139910Y0097711D02*
X0139910Y0097711D01*
X0139910Y0096112D02*
X0139910Y0096112D01*
X0141642Y0073733D02*
X0141643Y0073733D01*
X0141642Y0072134D02*
X0141643Y0072134D01*
X0141642Y0070536D02*
X0141643Y0070536D01*
X0141642Y0068937D02*
X0141643Y0068937D01*
X0141642Y0067339D02*
X0141643Y0067339D01*
X0144821Y0067339D02*
X0151243Y0067339D01*
X0152841Y0068937D02*
X0146043Y0068937D01*
X0146043Y0070536D02*
X0154440Y0070536D01*
X0156038Y0072134D02*
X0146043Y0072134D01*
X0144515Y0073733D02*
X0157637Y0073733D01*
X0168655Y0078529D02*
X0172432Y0078529D01*
X0174031Y0080127D02*
X0170253Y0080127D01*
X0171852Y0081726D02*
X0175629Y0081726D01*
X0177228Y0083324D02*
X0173450Y0083324D01*
X0175049Y0084923D02*
X0178826Y0084923D01*
X0180425Y0086521D02*
X0176647Y0086521D01*
X0178246Y0088120D02*
X0182023Y0088120D01*
X0183622Y0089718D02*
X0179844Y0089718D01*
X0188655Y0078529D02*
X0189076Y0078529D01*
X0193926Y0086911D02*
X0137083Y0030068D01*
X0141280Y0027376D02*
X0117838Y0027376D01*
X0057918Y0065740D02*
X0030443Y0065740D01*
X0028845Y0067339D02*
X0056441Y0067339D01*
X0055846Y0068937D02*
X0027246Y0068937D01*
X0025648Y0070536D02*
X0055791Y0070536D01*
X0056265Y0072134D02*
X0024049Y0072134D01*
X0022451Y0073733D02*
X0057465Y0073733D01*
X0072851Y0092915D02*
X0076863Y0092915D01*
X0058888Y0110499D02*
X0009786Y0110499D01*
X0009648Y0112097D02*
X0057289Y0112097D01*
X0055691Y0113696D02*
X0011119Y0113696D01*
X0006706Y0136367D02*
X0031406Y0140068D01*
X0082272Y0140068D01*
X0078876Y0144068D02*
X0003600Y0144068D01*
X0003600Y0145666D02*
X0094482Y0145666D01*
X0098882Y0145666D02*
X0196850Y0145666D01*
X0196850Y0144068D02*
X0116714Y0144068D01*
X0116561Y0144145D02*
X0117179Y0143831D01*
X0117739Y0143424D01*
X0118229Y0142934D01*
X0118636Y0142374D01*
X0118950Y0141757D01*
X0119164Y0141098D01*
X0119272Y0140414D01*
X0119272Y0140068D01*
X0112273Y0140068D01*
X0112273Y0140068D01*
X0112272Y0140068D02*
X0112272Y0140068D01*
X0112272Y0140068D01*
X0105272Y0140068D01*
X0105272Y0140414D01*
X0105381Y0141098D01*
X0105595Y0141757D01*
X0105909Y0142374D01*
X0106316Y0142934D01*
X0106806Y0143424D01*
X0107366Y0143831D01*
X0107983Y0144145D01*
X0108642Y0144359D01*
X0109326Y0144468D01*
X0112272Y0144468D01*
X0112272Y0140068D01*
X0105272Y0140068D01*
X0105272Y0139721D01*
X0105381Y0139037D01*
X0105595Y0138379D01*
X0105909Y0137762D01*
X0106316Y0137201D01*
X0106806Y0136712D01*
X0107366Y0136305D01*
X0107983Y0135990D01*
X0108642Y0135776D01*
X0109326Y0135668D01*
X0112272Y0135668D01*
X0112272Y0140068D01*
X0112272Y0144468D01*
X0115219Y0144468D01*
X0115903Y0144359D01*
X0116561Y0144145D01*
X0115668Y0146068D02*
X0117138Y0146677D01*
X0118263Y0147802D01*
X0118872Y0149272D01*
X0118872Y0150863D01*
X0118263Y0152334D01*
X0117138Y0153459D01*
X0115668Y0154068D01*
X0108877Y0154068D01*
X0107407Y0153459D01*
X0106281Y0152334D01*
X0105672Y0150863D01*
X0105672Y0149272D01*
X0106281Y0147802D01*
X0107407Y0146677D01*
X0108877Y0146068D01*
X0115668Y0146068D01*
X0117726Y0147265D02*
X0196850Y0147265D01*
X0196850Y0148863D02*
X0118703Y0148863D01*
X0118872Y0150462D02*
X0151037Y0150462D01*
X0151240Y0150259D02*
X0150180Y0151319D01*
X0149606Y0152704D01*
X0149606Y0154203D01*
X0150180Y0155588D01*
X0151240Y0156648D01*
X0152625Y0157222D01*
X0154124Y0157222D01*
X0155509Y0156648D01*
X0156570Y0155588D01*
X0157143Y0154203D01*
X0157143Y0152704D01*
X0156570Y0151319D01*
X0155509Y0150259D01*
X0154124Y0149685D01*
X0152625Y0149685D01*
X0151240Y0150259D01*
X0149873Y0152060D02*
X0130569Y0152060D01*
X0130848Y0152263D02*
X0131337Y0152752D01*
X0131744Y0153313D01*
X0132059Y0153930D01*
X0132273Y0154589D01*
X0132381Y0155273D01*
X0132381Y0155619D01*
X0132381Y0155965D01*
X0132273Y0156649D01*
X0132059Y0157308D01*
X0131744Y0157925D01*
X0131337Y0158485D01*
X0130848Y0158975D01*
X0130287Y0159382D01*
X0129670Y0159697D01*
X0129011Y0159911D01*
X0128327Y0160019D01*
X0127981Y0160019D01*
X0127635Y0160019D01*
X0126951Y0159911D01*
X0126292Y0159697D01*
X0125675Y0159382D01*
X0125115Y0158975D01*
X0124625Y0158485D01*
X0124218Y0157925D01*
X0123903Y0157308D01*
X0123689Y0156649D01*
X0123581Y0155965D01*
X0123581Y0155619D01*
X0127981Y0155619D01*
X0127981Y0160019D01*
X0127981Y0155619D01*
X0127981Y0155619D01*
X0127981Y0155619D01*
X0123581Y0155619D01*
X0123581Y0155273D01*
X0123689Y0154589D01*
X0123903Y0153930D01*
X0124218Y0153313D01*
X0124625Y0152752D01*
X0125115Y0152263D01*
X0125675Y0151856D01*
X0126292Y0151541D01*
X0126951Y0151327D01*
X0127635Y0151219D01*
X0127981Y0151219D01*
X0127981Y0155619D01*
X0132381Y0155619D01*
X0127981Y0155619D01*
X0127981Y0155619D01*
X0127981Y0155619D01*
X0127981Y0151219D01*
X0128327Y0151219D01*
X0129011Y0151327D01*
X0129670Y0151541D01*
X0130287Y0151856D01*
X0130848Y0152263D01*
X0131920Y0153659D02*
X0149606Y0153659D01*
X0150043Y0155257D02*
X0132379Y0155257D01*
X0132206Y0156856D02*
X0151741Y0156856D01*
X0152584Y0157353D02*
X0151123Y0157958D01*
X0150005Y0159076D01*
X0149400Y0160537D01*
X0149400Y0162118D01*
X0150005Y0163579D01*
X0151123Y0164697D01*
X0152493Y0165265D01*
X0151123Y0165832D01*
X0150005Y0166950D01*
X0149650Y0167807D01*
X0149206Y0168251D01*
X0149206Y0170073D01*
X0149594Y0170462D01*
X0150005Y0171453D01*
X0151123Y0172571D01*
X0152493Y0173139D01*
X0151123Y0173706D01*
X0150005Y0174824D01*
X0149400Y0176285D01*
X0149400Y0177866D01*
X0150005Y0179327D01*
X0151123Y0180445D01*
X0152584Y0181050D01*
X0154165Y0181050D01*
X0155626Y0180445D01*
X0156744Y0179327D01*
X0157350Y0177866D01*
X0157350Y0176285D01*
X0156744Y0174824D01*
X0155626Y0173706D01*
X0154257Y0173139D01*
X0155626Y0172571D01*
X0156744Y0171453D01*
X0156782Y0171362D01*
X0168842Y0171362D01*
X0168863Y0171414D01*
X0169761Y0172312D01*
X0168863Y0173210D01*
X0168258Y0174671D01*
X0168258Y0176252D01*
X0168863Y0177713D01*
X0169494Y0178343D01*
X0169383Y0178424D01*
X0168896Y0178911D01*
X0168491Y0179468D01*
X0168179Y0180081D01*
X0167966Y0180736D01*
X0167858Y0181416D01*
X0167858Y0181761D01*
X0172233Y0181761D01*
X0172233Y0186135D01*
X0171889Y0186135D01*
X0171209Y0186028D01*
X0170554Y0185815D01*
X0169940Y0185502D01*
X0169383Y0185098D01*
X0168896Y0184611D01*
X0168491Y0184054D01*
X0168179Y0183440D01*
X0167966Y0182785D01*
X0167858Y0182105D01*
X0167858Y0181761D01*
X0172233Y0181761D01*
X0172233Y0181761D01*
X0172233Y0186135D01*
X0172577Y0186135D01*
X0173258Y0186028D01*
X0173912Y0185815D01*
X0174526Y0185502D01*
X0175083Y0185098D01*
X0175570Y0184611D01*
X0175975Y0184054D01*
X0176287Y0183440D01*
X0176500Y0182785D01*
X0176532Y0182586D01*
X0177748Y0182586D01*
X0179209Y0181981D01*
X0180327Y0180863D01*
X0180932Y0179402D01*
X0180932Y0177820D01*
X0180327Y0176359D01*
X0179429Y0175461D01*
X0180327Y0174563D01*
X0180932Y0173102D01*
X0180932Y0171521D01*
X0180327Y0170060D01*
X0179209Y0168942D01*
X0177748Y0168337D01*
X0176194Y0168337D01*
X0175603Y0166911D01*
X0174485Y0165793D01*
X0173024Y0165187D01*
X0171442Y0165187D01*
X0169982Y0165793D01*
X0168863Y0166911D01*
X0168842Y0166962D01*
X0156750Y0166962D01*
X0156744Y0166950D01*
X0155626Y0165832D01*
X0154257Y0165265D01*
X0155626Y0164697D01*
X0156744Y0163579D01*
X0157350Y0162118D01*
X0157350Y0160537D01*
X0156744Y0159076D01*
X0155626Y0157958D01*
X0154165Y0157353D01*
X0152584Y0157353D01*
X0150627Y0158454D02*
X0131360Y0158454D01*
X0131161Y0161619D02*
X0131981Y0162439D01*
X0131981Y0168799D01*
X0131161Y0169619D01*
X0124801Y0169619D01*
X0123981Y0168799D01*
X0123981Y0162439D01*
X0124801Y0161619D01*
X0131161Y0161619D01*
X0131193Y0161651D02*
X0149400Y0161651D01*
X0149601Y0160053D02*
X0108724Y0160053D01*
X0108724Y0161651D02*
X0124769Y0161651D01*
X0123981Y0163250D02*
X0108724Y0163250D01*
X0108724Y0164848D02*
X0123981Y0164848D01*
X0123981Y0166447D02*
X0108724Y0166447D01*
X0108724Y0168045D02*
X0123981Y0168045D01*
X0124356Y0170944D02*
X0121456Y0173844D01*
X0121456Y0175894D01*
X0126406Y0175894D01*
X0126406Y0175894D01*
X0126406Y0170944D01*
X0124356Y0170944D01*
X0124058Y0171242D02*
X0108724Y0171242D01*
X0108724Y0169644D02*
X0149206Y0169644D01*
X0149412Y0168045D02*
X0131981Y0168045D01*
X0131981Y0166447D02*
X0150508Y0166447D01*
X0151488Y0164848D02*
X0131981Y0164848D01*
X0131981Y0163250D02*
X0149869Y0163250D01*
X0155262Y0164848D02*
X0186280Y0164848D01*
X0185618Y0163250D02*
X0156881Y0163250D01*
X0157350Y0161651D02*
X0185302Y0161651D01*
X0185302Y0160053D02*
X0157149Y0160053D01*
X0156123Y0158454D02*
X0185816Y0158454D01*
X0186634Y0156856D02*
X0155009Y0156856D01*
X0156707Y0155257D02*
X0188232Y0155257D01*
X0196392Y0155257D02*
X0196850Y0155257D01*
X0196850Y0153659D02*
X0157143Y0153659D01*
X0156877Y0152060D02*
X0196850Y0152060D01*
X0196850Y0150462D02*
X0155712Y0150462D01*
X0155562Y0137673D02*
X0118572Y0137673D01*
X0118636Y0137762D02*
X0118950Y0138379D01*
X0119164Y0139037D01*
X0119272Y0139721D01*
X0119272Y0140068D01*
X0112273Y0140068D01*
X0112272Y0140068D02*
X0112272Y0135668D01*
X0115219Y0135668D01*
X0115903Y0135776D01*
X0116561Y0135990D01*
X0117179Y0136305D01*
X0117739Y0136712D01*
X0118229Y0137201D01*
X0118636Y0137762D01*
X0119201Y0139272D02*
X0189384Y0139272D01*
X0190673Y0140870D02*
X0119200Y0140870D01*
X0118566Y0142469D02*
X0196850Y0142469D01*
X0193926Y0136911D02*
X0193815Y0136800D01*
X0157800Y0136800D01*
X0151068Y0130068D01*
X0112272Y0130068D01*
X0107872Y0126484D02*
X0098882Y0126484D01*
X0098882Y0128082D02*
X0106165Y0128082D01*
X0105672Y0129681D02*
X0098882Y0129681D01*
X0098882Y0131279D02*
X0105845Y0131279D01*
X0106826Y0132878D02*
X0098882Y0132878D01*
X0098882Y0134476D02*
X0152365Y0134476D01*
X0150767Y0132878D02*
X0117719Y0132878D01*
X0116728Y0136075D02*
X0153964Y0136075D01*
X0156989Y0132878D02*
X0190747Y0132878D01*
X0191145Y0131279D02*
X0155391Y0131279D01*
X0153792Y0129681D02*
X0189553Y0129681D01*
X0189414Y0134476D02*
X0158588Y0134476D01*
X0160971Y0128082D02*
X0152194Y0128082D01*
X0156176Y0123287D02*
X0117310Y0123287D01*
X0116673Y0126484D02*
X0159373Y0126484D01*
X0157774Y0124885D02*
X0098882Y0124885D01*
X0098882Y0123287D02*
X0107235Y0123287D01*
X0106014Y0121688D02*
X0098882Y0121688D01*
X0098882Y0120090D02*
X0105672Y0120090D01*
X0105996Y0118491D02*
X0098882Y0118491D01*
X0098882Y0116893D02*
X0107190Y0116893D01*
X0112272Y0120068D02*
X0156068Y0120068D01*
X0162800Y0126800D01*
X0193815Y0126800D01*
X0193926Y0126911D01*
X0187753Y0166447D02*
X0175139Y0166447D01*
X0176073Y0168045D02*
X0190781Y0168045D01*
X0193842Y0168045D02*
X0196850Y0168045D01*
X0196850Y0169644D02*
X0179911Y0169644D01*
X0180817Y0171242D02*
X0196850Y0171242D01*
X0196850Y0172841D02*
X0180932Y0172841D01*
X0180379Y0174439D02*
X0196850Y0174439D01*
X0196850Y0176038D02*
X0180005Y0176038D01*
X0180856Y0177636D02*
X0196850Y0177636D01*
X0196850Y0179235D02*
X0180932Y0179235D01*
X0180339Y0180833D02*
X0196850Y0180833D01*
X0196850Y0182432D02*
X0178120Y0182432D01*
X0175987Y0184030D02*
X0188199Y0184030D01*
X0186601Y0185629D02*
X0174278Y0185629D01*
X0172233Y0185629D02*
X0172233Y0185629D01*
X0172233Y0184030D02*
X0172233Y0184030D01*
X0172233Y0182432D02*
X0172233Y0182432D01*
X0172233Y0181761D02*
X0172233Y0181761D01*
X0167910Y0182432D02*
X0156186Y0182432D01*
X0156570Y0182815D02*
X0155509Y0181755D01*
X0154124Y0181181D01*
X0152625Y0181181D01*
X0151240Y0181755D01*
X0150180Y0182815D01*
X0149606Y0184200D01*
X0149606Y0185699D01*
X0150180Y0187084D01*
X0151240Y0188144D01*
X0152625Y0188718D01*
X0154124Y0188718D01*
X0155509Y0188144D01*
X0156570Y0187084D01*
X0157143Y0185699D01*
X0157143Y0184200D01*
X0156570Y0182815D01*
X0157073Y0184030D02*
X0168480Y0184030D01*
X0170188Y0185629D02*
X0157143Y0185629D01*
X0156427Y0187227D02*
X0185803Y0187227D01*
X0185302Y0188826D02*
X0129910Y0188826D01*
X0130956Y0187779D02*
X0128291Y0190444D01*
X0124522Y0190444D01*
X0121856Y0187779D01*
X0121856Y0184010D01*
X0124522Y0181344D01*
X0128291Y0181344D01*
X0130956Y0184010D01*
X0130956Y0187779D01*
X0130956Y0187227D02*
X0150323Y0187227D01*
X0149606Y0185629D02*
X0130956Y0185629D01*
X0130956Y0184030D02*
X0149677Y0184030D01*
X0150563Y0182432D02*
X0129378Y0182432D01*
X0128457Y0180844D02*
X0126406Y0180844D01*
X0124356Y0180844D01*
X0121456Y0177945D01*
X0121456Y0175895D01*
X0126406Y0175895D01*
X0126406Y0180844D01*
X0126406Y0175895D01*
X0126406Y0175895D01*
X0126406Y0175894D01*
X0126406Y0170944D01*
X0128457Y0170944D01*
X0131356Y0173844D01*
X0131356Y0175894D01*
X0126406Y0175894D01*
X0126406Y0175895D01*
X0131356Y0175895D01*
X0131356Y0177945D01*
X0128457Y0180844D01*
X0128468Y0180833D02*
X0152060Y0180833D01*
X0149967Y0179235D02*
X0130066Y0179235D01*
X0131356Y0177636D02*
X0149400Y0177636D01*
X0149502Y0176038D02*
X0131356Y0176038D01*
X0131356Y0174439D02*
X0150390Y0174439D01*
X0151774Y0172841D02*
X0130353Y0172841D01*
X0128754Y0171242D02*
X0149918Y0171242D01*
X0151406Y0169162D02*
X0172233Y0169162D01*
X0169327Y0166447D02*
X0156241Y0166447D01*
X0154976Y0172841D02*
X0169233Y0172841D01*
X0168354Y0174439D02*
X0156360Y0174439D01*
X0157247Y0176038D02*
X0168258Y0176038D01*
X0168832Y0177636D02*
X0157350Y0177636D01*
X0156783Y0179235D02*
X0168661Y0179235D01*
X0167951Y0180833D02*
X0154690Y0180833D01*
X0128311Y0190424D02*
X0185302Y0190424D01*
X0185632Y0192023D02*
X0087721Y0192023D01*
X0088798Y0190945D02*
X0086221Y0193523D01*
X0084398Y0193523D01*
X0082576Y0193523D01*
X0079998Y0190945D01*
X0079998Y0189123D01*
X0084398Y0189123D01*
X0084398Y0189123D01*
X0084398Y0193523D01*
X0084398Y0189123D01*
X0084398Y0189123D01*
X0079998Y0189123D01*
X0079998Y0187300D01*
X0082576Y0184723D01*
X0084398Y0184723D01*
X0084398Y0189123D01*
X0084398Y0189123D01*
X0084399Y0189123D02*
X0088798Y0189123D01*
X0088798Y0190945D01*
X0088798Y0190424D02*
X0124501Y0190424D01*
X0122903Y0188826D02*
X0088798Y0188826D01*
X0088798Y0189123D02*
X0084399Y0189123D01*
X0084399Y0189123D01*
X0084398Y0189123D02*
X0084398Y0184723D01*
X0086221Y0184723D01*
X0088798Y0187300D01*
X0088798Y0189123D01*
X0088725Y0187227D02*
X0121856Y0187227D01*
X0121856Y0185629D02*
X0087127Y0185629D01*
X0084398Y0185629D02*
X0084398Y0185629D01*
X0084398Y0187227D02*
X0084398Y0187227D01*
X0084398Y0188826D02*
X0084398Y0188826D01*
X0084398Y0190424D02*
X0084398Y0190424D01*
X0084398Y0192023D02*
X0084398Y0192023D01*
X0081076Y0192023D02*
X0012031Y0192023D01*
X0012302Y0193621D02*
X0186294Y0193621D01*
X0187786Y0195220D02*
X0012088Y0195220D01*
X0011285Y0196818D02*
X0190861Y0196818D01*
X0193763Y0196818D02*
X0196850Y0196818D01*
X0196837Y0195220D02*
X0196850Y0195220D01*
X0196850Y0184030D02*
X0196425Y0184030D01*
X0127981Y0158454D02*
X0127981Y0158454D01*
X0127981Y0156856D02*
X0127981Y0156856D01*
X0127981Y0155257D02*
X0127981Y0155257D01*
X0127981Y0153659D02*
X0127981Y0153659D01*
X0127981Y0152060D02*
X0127981Y0152060D01*
X0125394Y0152060D02*
X0118377Y0152060D01*
X0116656Y0153659D02*
X0124042Y0153659D01*
X0123584Y0155257D02*
X0098882Y0155257D01*
X0098882Y0153659D02*
X0107889Y0153659D01*
X0106168Y0152060D02*
X0098882Y0152060D01*
X0098882Y0150462D02*
X0105672Y0150462D01*
X0105842Y0148863D02*
X0098882Y0148863D01*
X0098882Y0147265D02*
X0106819Y0147265D01*
X0107831Y0144068D02*
X0098882Y0144068D01*
X0098882Y0142469D02*
X0105978Y0142469D01*
X0105345Y0140870D02*
X0098882Y0140870D01*
X0098882Y0139272D02*
X0105344Y0139272D01*
X0105973Y0137673D02*
X0098882Y0137673D01*
X0098882Y0136075D02*
X0107817Y0136075D01*
X0112272Y0136075D02*
X0112272Y0136075D01*
X0112272Y0137673D02*
X0112272Y0137673D01*
X0112272Y0139272D02*
X0112272Y0139272D01*
X0112272Y0140068D02*
X0112272Y0140068D01*
X0112272Y0140870D02*
X0112272Y0140870D01*
X0112272Y0142469D02*
X0112272Y0142469D01*
X0112272Y0144068D02*
X0112272Y0144068D01*
X0107605Y0156856D02*
X0123757Y0156856D01*
X0124602Y0158454D02*
X0108724Y0158454D01*
X0106524Y0158887D02*
X0106524Y0178965D01*
X0110313Y0180833D02*
X0112170Y0180833D01*
X0112124Y0180788D02*
X0112124Y0178965D01*
X0112124Y0177143D01*
X0114702Y0174565D01*
X0116524Y0174565D01*
X0116524Y0178965D01*
X0112124Y0178965D01*
X0116524Y0178965D01*
X0116524Y0178965D01*
X0116524Y0178965D01*
X0116524Y0174565D01*
X0118347Y0174565D01*
X0120924Y0177143D01*
X0120924Y0178965D01*
X0116525Y0178965D01*
X0116525Y0178965D01*
X0120924Y0178965D01*
X0120924Y0180788D01*
X0118347Y0183365D01*
X0116524Y0183365D01*
X0114702Y0183365D01*
X0112124Y0180788D01*
X0112124Y0179235D02*
X0110524Y0179235D01*
X0110524Y0177636D02*
X0112124Y0177636D01*
X0113229Y0176038D02*
X0109254Y0176038D01*
X0108724Y0174439D02*
X0121456Y0174439D01*
X0121456Y0176038D02*
X0119819Y0176038D01*
X0120924Y0177636D02*
X0121456Y0177636D01*
X0120924Y0179235D02*
X0122746Y0179235D01*
X0124345Y0180833D02*
X0120879Y0180833D01*
X0119280Y0182432D02*
X0123434Y0182432D01*
X0121856Y0184030D02*
X0056144Y0184030D01*
X0055937Y0183824D02*
X0058280Y0186167D01*
X0058280Y0189480D01*
X0055937Y0191824D01*
X0052623Y0191824D01*
X0050280Y0189480D01*
X0050280Y0186167D01*
X0052623Y0183824D01*
X0055937Y0183824D01*
X0057742Y0185629D02*
X0081670Y0185629D01*
X0080071Y0187227D02*
X0058280Y0187227D01*
X0058280Y0188826D02*
X0079998Y0188826D01*
X0079998Y0190424D02*
X0057336Y0190424D01*
X0051224Y0190424D02*
X0011149Y0190424D01*
X0008786Y0188826D02*
X0050280Y0188826D01*
X0050280Y0187227D02*
X0010877Y0187227D01*
X0011919Y0185629D02*
X0033318Y0185629D01*
X0032446Y0184030D02*
X0012302Y0184030D01*
X0012201Y0182432D02*
X0032446Y0182432D01*
X0033055Y0180833D02*
X0011539Y0180833D01*
X0009773Y0179235D02*
X0034653Y0179235D01*
X0037590Y0177636D02*
X0011033Y0177636D01*
X0012178Y0176038D02*
X0038720Y0176038D01*
X0039849Y0174439D02*
X0012651Y0174439D01*
X0012636Y0172841D02*
X0040978Y0172841D01*
X0042107Y0171242D02*
X0012127Y0171242D01*
X0010934Y0169644D02*
X0043237Y0169644D01*
X0044366Y0168045D02*
X0010014Y0168045D01*
X0011580Y0166447D02*
X0033571Y0166447D01*
X0034623Y0167499D02*
X0032046Y0164922D01*
X0032046Y0163099D01*
X0032046Y0161277D01*
X0034623Y0158699D01*
X0036446Y0158699D01*
X0038268Y0158699D01*
X0040846Y0161277D01*
X0040846Y0163099D01*
X0036446Y0163099D01*
X0036446Y0163099D01*
X0036446Y0158699D01*
X0036446Y0163099D01*
X0036446Y0163099D01*
X0040846Y0163099D01*
X0040846Y0164922D01*
X0038268Y0167499D01*
X0036446Y0167499D01*
X0036446Y0163099D01*
X0036446Y0163099D01*
X0032046Y0163099D01*
X0036446Y0163099D01*
X0036446Y0163099D01*
X0036446Y0167499D01*
X0034623Y0167499D01*
X0036446Y0166447D02*
X0036446Y0166447D01*
X0036446Y0164848D02*
X0036446Y0164848D01*
X0036446Y0163250D02*
X0036446Y0163250D01*
X0036446Y0161651D02*
X0036446Y0161651D01*
X0036446Y0160053D02*
X0036446Y0160053D01*
X0039622Y0160053D02*
X0050012Y0160053D01*
X0050280Y0158454D02*
X0009026Y0158454D01*
X0010777Y0160053D02*
X0033270Y0160053D01*
X0032046Y0161651D02*
X0011877Y0161651D01*
X0012302Y0163250D02*
X0032046Y0163250D01*
X0032046Y0164848D02*
X0012242Y0164848D01*
X0011248Y0156856D02*
X0050280Y0156856D01*
X0051190Y0155257D02*
X0012073Y0155257D01*
X0012302Y0153659D02*
X0077889Y0153659D01*
X0076168Y0152060D02*
X0012047Y0152060D01*
X0011186Y0150462D02*
X0075672Y0150462D01*
X0075842Y0148863D02*
X0008876Y0148863D01*
X0005527Y0148863D02*
X0003600Y0148863D01*
X0003600Y0147265D02*
X0076819Y0147265D01*
X0076417Y0142469D02*
X0003600Y0142469D01*
X0003600Y0140870D02*
X0004251Y0140870D01*
X0030274Y0137673D02*
X0076410Y0137673D01*
X0075996Y0118491D02*
X0057118Y0118491D01*
X0058716Y0116893D02*
X0077190Y0116893D01*
X0054280Y0157824D02*
X0036564Y0182902D01*
X0039573Y0185629D02*
X0050818Y0185629D01*
X0052417Y0184030D02*
X0040446Y0184030D01*
X0040446Y0182432D02*
X0082051Y0182432D01*
X0082133Y0182514D02*
X0081007Y0181389D01*
X0080398Y0179918D01*
X0080398Y0178327D01*
X0081007Y0176857D01*
X0082133Y0175732D01*
X0083603Y0175123D01*
X0085194Y0175123D01*
X0086664Y0175732D01*
X0087789Y0176857D01*
X0088398Y0178327D01*
X0088398Y0179918D01*
X0087789Y0181389D01*
X0086664Y0182514D01*
X0085194Y0183123D01*
X0083603Y0183123D01*
X0082133Y0182514D01*
X0080777Y0180833D02*
X0040719Y0180833D01*
X0041848Y0179235D02*
X0080398Y0179235D01*
X0080685Y0177636D02*
X0042978Y0177636D01*
X0044107Y0176038D02*
X0081827Y0176038D01*
X0086970Y0176038D02*
X0093795Y0176038D01*
X0094868Y0174965D02*
X0098181Y0174965D01*
X0100524Y0177309D01*
X0100524Y0180622D01*
X0098181Y0182965D01*
X0094868Y0182965D01*
X0092524Y0180622D01*
X0092524Y0177309D01*
X0094868Y0174965D01*
X0092524Y0177636D02*
X0088112Y0177636D01*
X0088398Y0179235D02*
X0092524Y0179235D01*
X0092735Y0180833D02*
X0088020Y0180833D01*
X0086746Y0182432D02*
X0094334Y0182432D01*
X0098715Y0182432D02*
X0104334Y0182432D01*
X0102735Y0180833D02*
X0100313Y0180833D01*
X0100524Y0179235D02*
X0102524Y0179235D01*
X0102524Y0177636D02*
X0100524Y0177636D01*
X0099254Y0176038D02*
X0103795Y0176038D01*
X0104324Y0174439D02*
X0045236Y0174439D01*
X0046365Y0172841D02*
X0104324Y0172841D01*
X0104324Y0171242D02*
X0047495Y0171242D01*
X0048624Y0169644D02*
X0065325Y0169644D01*
X0065379Y0169698D02*
X0063036Y0167354D01*
X0063036Y0164041D01*
X0065379Y0161698D01*
X0068693Y0161698D01*
X0071036Y0164041D01*
X0071036Y0167354D01*
X0068693Y0169698D01*
X0065379Y0169698D01*
X0063727Y0168045D02*
X0049753Y0168045D01*
X0050882Y0166447D02*
X0063036Y0166447D01*
X0063036Y0164848D02*
X0052012Y0164848D01*
X0053141Y0163250D02*
X0063827Y0163250D01*
X0070245Y0163250D02*
X0093827Y0163250D01*
X0093036Y0164041D02*
X0095379Y0161698D01*
X0098693Y0161698D01*
X0101036Y0164041D01*
X0101036Y0167354D01*
X0098693Y0169698D01*
X0095379Y0169698D01*
X0093036Y0167354D01*
X0093036Y0164041D01*
X0093036Y0164848D02*
X0071036Y0164848D01*
X0071036Y0166447D02*
X0093036Y0166447D01*
X0093727Y0168045D02*
X0070346Y0168045D01*
X0068747Y0169644D02*
X0095325Y0169644D01*
X0098747Y0169644D02*
X0104324Y0169644D01*
X0104324Y0168045D02*
X0100346Y0168045D01*
X0101036Y0166447D02*
X0104324Y0166447D01*
X0104324Y0164848D02*
X0101036Y0164848D01*
X0100245Y0163250D02*
X0104324Y0163250D01*
X0104324Y0161651D02*
X0056110Y0161651D01*
X0048883Y0161651D02*
X0040846Y0161651D01*
X0040846Y0163250D02*
X0047754Y0163250D01*
X0046624Y0164848D02*
X0040846Y0164848D01*
X0039321Y0166447D02*
X0045495Y0166447D01*
X0099044Y0158887D02*
X0106524Y0158887D01*
X0108724Y0172841D02*
X0122460Y0172841D01*
X0126406Y0172841D02*
X0126406Y0172841D01*
X0126406Y0174439D02*
X0126406Y0174439D01*
X0126406Y0176038D02*
X0126406Y0176038D01*
X0126406Y0177636D02*
X0126406Y0177636D01*
X0126406Y0179235D02*
X0126406Y0179235D01*
X0126406Y0180833D02*
X0126406Y0180833D01*
X0126406Y0171242D02*
X0126406Y0171242D01*
X0116524Y0176038D02*
X0116524Y0176038D01*
X0116524Y0177636D02*
X0116524Y0177636D01*
X0116524Y0178965D02*
X0116524Y0183365D01*
X0116524Y0178965D01*
X0116524Y0178965D01*
X0116524Y0179235D02*
X0116524Y0179235D01*
X0116524Y0180833D02*
X0116524Y0180833D01*
X0116524Y0182432D02*
X0116524Y0182432D01*
X0113768Y0182432D02*
X0108715Y0182432D01*
X0010244Y0072134D02*
X0009686Y0072134D01*
X0010315Y0070536D02*
X0011842Y0070536D01*
X0011569Y0068937D02*
X0013441Y0068937D01*
X0012120Y0067339D02*
X0015040Y0067339D01*
X0016638Y0065740D02*
X0012175Y0065740D01*
X0012205Y0065934D02*
X0012205Y0066167D01*
X0006906Y0066167D01*
X0006906Y0060867D01*
X0007138Y0060867D01*
X0007993Y0061002D01*
X0008817Y0061270D01*
X0009588Y0061663D01*
X0010289Y0062172D01*
X0010901Y0062784D01*
X0011410Y0063484D01*
X0011803Y0064256D01*
X0012070Y0065079D01*
X0012205Y0065934D01*
X0011745Y0064142D02*
X0018237Y0064142D01*
X0019835Y0062543D02*
X0010660Y0062543D01*
X0007631Y0060945D02*
X0021434Y0060945D01*
X0023032Y0059346D02*
X0003600Y0059346D01*
X0003600Y0057748D02*
X0024631Y0057748D01*
X0026229Y0056149D02*
X0003600Y0056149D01*
X0003600Y0054551D02*
X0027828Y0054551D01*
X0029426Y0052952D02*
X0003600Y0052952D01*
X0003600Y0051354D02*
X0031025Y0051354D01*
X0006906Y0060945D02*
X0006505Y0060945D01*
X0005780Y0060945D02*
X0003600Y0060945D01*
X0006505Y0062543D02*
X0006906Y0062543D01*
X0006906Y0064142D02*
X0006505Y0064142D01*
X0006505Y0065740D02*
X0006906Y0065740D01*
X0003600Y0008194D02*
X0196850Y0008194D01*
X0196850Y0006596D02*
X0003600Y0006596D01*
X0003600Y0004997D02*
X0196850Y0004997D01*
M02*
